SplineFontDB: 3.2
FontName: Essiah
FullName: Essiah
FamilyName: Essiah
Weight: Book
Copyright: Copyright (c) 2023, Michael Chapman
Version: 001.000
DefaultBaseFilename: essiah
ItalicAngle: 0
UnderlinePosition: 0
UnderlineWidth: 0
Ascent: 512
Descent: 512
InvalidEm: 0
sfntRevision: 0x00010000
LayerCount: 2
Layer: 0 1 "Back" 1
Layer: 1 1 "Fore" 0
XUID: [1021 96 -335474456 12931914]
StyleMap: 0x0040
FSType: 0
OS2Version: 4
OS2_WeightWidthSlopeOnly: 0
OS2_UseTypoMetrics: 1
CreationTime: 1701637513
ModificationTime: 1731749599
PfmFamily: 17
TTFWeight: 400
TTFWidth: 5
LineGap: 0
VLineGap: 0
Panose: 2 0 5 3 0 0 0 0 0 0
OS2TypoAscent: 512
OS2TypoAOffset: 0
OS2TypoDescent: -512
OS2TypoDOffset: 0
OS2TypoLinegap: 0
OS2WinAscent: 512
OS2WinAOffset: 0
OS2WinDescent: -512
OS2WinDOffset: 0
HheadAscent: 512
HheadAOffset: 0
HheadDescent: -512
HheadDOffset: 0
OS2SubXSize: 256
OS2SubYSize: 256
OS2SubXOff: 0
OS2SubYOff: 128
OS2SupXSize: 256
OS2SupYSize: 256
OS2SupXOff: 0
OS2SupYOff: 768
OS2StrikeYSize: 64
OS2StrikeYPos: 0
OS2CapHeight: 448
OS2XHeight: 448
OS2Vendor: 'PfEd'
OS2CodePages: 00000001.00000000
OS2UnicodeRanges: 00000003.00000000.00000000.00000000
MarkAttachClasses: 1
DEI: 91125
ShortTable: cvt  2
  34
  648
EndShort
ShortTable: maxp 16
  1
  0
  120
  16
  5
  0
  0
  2
  0
  1
  1
  0
  64
  46
  0
  0
EndShort
LangName: 1033 "" "" "Regular" "FontForge : Essiah : 21-7-2024" "" "Version 001.000"
GaspTable: 1 65535 2 0
Encoding: UnicodeBmp
UnicodeInterp: none
NameList: AGL For New Fonts
DisplaySize: -48
AntiAlias: 1
FitToEm: 0
WinInfo: 16 16 10
BeginPrivate: 0
EndPrivate
Grid
256 0 m 4
 256 -141 371 -256 512 -256 c 4
 653 -256 768 -141 768 0 c 4
 768 141 653 256 512 256 c 4
 371 256 256 141 256 0 c 4
128 0 m 4
 128 212 300 384 512 384 c 4
 724 384 896 212 896 0 c 4
 896 -212 724 -384 512 -384 c 4
 300 -384 128 -212 128 0 c 4
1024 -512 m 1
 0 512 l 1025
0 -512 m 1
 1024 512 l 1025
0 -64 m 25
 1024 -64 l 1049
0 64 m 25
 1024 64 l 1049
448 -512 m 25
 448 512 l 1049

StartChar: .notdef
Encoding: 65536 -1 0
Width: 491
VWidth: 1351
GlyphClass: 1
Flags: W
LayerCount: 2
Fore
SplineSet
45 0 m 1,0,-1
 45 900 l 1,1,-1
 404 900 l 1,2,-1
 404 0 l 1,3,-1
 45 0 l 1,0,-1
90 45 m 1,4,-1
 359 45 l 1,5,-1
 359 855 l 1,6,-1
 90 855 l 1,7,-1
 90 45 l 1,4,-1
EndSplineSet
Validated: 1
EndChar

StartChar: eth
Encoding: 240 240 4
Width: 1024
VWidth: 1689
Flags: W
LayerCount: 2
Fore
SplineSet
576 -64 m 5,0,-1
 576 -385 l 5,1,-1
 448 -384 l 5,2,-1
 448 -64 l 5,3,-1
 127 -64 l 5,4,-1
 128 64 l 5,5,-1
 448 64 l 5,6,-1
 448 256 l 5,7,-1
 448 384 l 5,8,-1
 512 384 l 6,9,10
 672 384 672 384 784 272 c 5,11,-1
 693 181 l 5,12,13
 642 232 642 232 576 248 c 5,14,-1
 576 64 l 5,15,-1
 896 64 l 5,16,-1
 896 -64 l 5,17,-1
 576 -64 l 5,0,-1
EndSplineSet
Validated: 1
EndChar

StartChar: ntilde
Encoding: 241 241 5
Width: 1024
VWidth: 1689
Flags: W
LayerCount: 2
Fore
SplineSet
575 64 m 5,0,-1
 896 64 l 5,1,-1
 895 -64 l 5,2,-1
 575 -64 l 5,3,-1
 575 -385 l 5,4,-1
 447 -384 l 5,5,-1
 447 -64 l 5,6,-1
 255 -64 l 5,7,-1
 127 -64 l 5,8,-1
 127 0 l 6,9,10
 127 160 127 160 239 272 c 5,11,-1
 330 181 l 5,12,13
 279 130 279 130 263 64 c 5,14,-1
 447 64 l 5,15,-1
 447 384 l 5,16,-1
 575 384 l 5,17,-1
 575 64 l 5,0,-1
EndSplineSet
Validated: 1
EndChar

StartChar: ograve
Encoding: 242 242 6
Width: 1024
VWidth: 1689
Flags: W
LayerCount: 2
Fore
SplineSet
447 63 m 5,0,-1
 447 384 l 5,1,-1
 575 383 l 5,2,-1
 575 63 l 5,3,-1
 896 63 l 5,4,-1
 895 -65 l 5,5,-1
 575 -65 l 5,6,-1
 575 -257 l 5,7,-1
 575 -385 l 5,8,-1
 511 -385 l 6,9,10
 351 -385 351 -385 239 -273 c 5,11,-1
 330 -182 l 5,12,13
 381 -233 381 -233 447 -249 c 5,14,-1
 447 -65 l 5,15,-1
 127 -65 l 5,16,-1
 127 63 l 5,17,-1
 447 63 l 5,0,-1
EndSplineSet
Validated: 1
EndChar

StartChar: oacute
Encoding: 243 243 7
Width: 1024
VWidth: 1689
Flags: W
LayerCount: 2
Fore
SplineSet
448 -65 m 5,0,-1
 127 -65 l 5,1,-1
 128 63 l 5,2,-1
 448 63 l 5,3,-1
 448 384 l 5,4,-1
 576 383 l 5,5,-1
 576 63 l 5,6,-1
 768 63 l 5,7,-1
 896 63 l 5,8,-1
 896 -1 l 6,9,10
 896 -161 896 -161 784 -273 c 5,11,-1
 693 -182 l 5,12,13
 744 -131 744 -131 760 -65 c 5,14,-1
 576 -65 l 5,15,-1
 576 -385 l 5,16,-1
 448 -385 l 5,17,-1
 448 -65 l 5,0,-1
EndSplineSet
Validated: 1
EndChar

StartChar: ocircumflex
Encoding: 244 244 8
Width: 1024
VWidth: 1689
Flags: W
LayerCount: 2
Fore
SplineSet
448 -64 m 1,0,-1
 127 -64 l 1,1,-1
 128 64 l 1,2,-1
 448 64 l 1,3,-1
 448 256 l 1,4,-1
 448 384 l 1,5,-1
 512 384 l 2,6,7
 672 384 672 384 784 272 c 1,8,-1
 693 181 l 1,9,10
 642 232 642 232 576 248 c 1,11,-1
 576 64 l 1,12,-1
 768 64 l 1,13,-1
 896 64 l 1,14,-1
 896 0 l 2,15,16
 896 -160 896 -160 784 -272 c 1,17,-1
 693 -181 l 1,18,19
 744 -130 744 -130 760 -64 c 1,20,-1
 576 -64 l 1,21,-1
 576 -385 l 1,22,-1
 448 -384 l 1,23,-1
 448 -64 l 1,0,-1
EndSplineSet
Validated: 1025
EndChar

StartChar: oslash
Encoding: 248 248 9
Width: 1024
VWidth: 1689
Flags: W
LayerCount: 2
Fore
SplineSet
448 64 m 5,0,-1
 448 256 l 5,1,-1
 448 384 l 5,2,-1
 512 384 l 6,3,4
 672 384 672 384 784 272 c 5,5,-1
 693 181 l 5,6,7
 642 232 642 232 576 248 c 5,8,-1
 576 64 l 5,9,-1
 768 64 l 5,10,-1
 896 64 l 5,11,-1
 896 0 l 6,12,13
 896 -160 896 -160 784 -272 c 5,14,-1
 693 -181 l 5,15,16
 744 -130 744 -130 760 -64 c 5,17,-1
 576 -64 l 5,18,-1
 576 -256 l 5,19,-1
 576 -384 l 5,20,-1
 512 -384 l 6,21,22
 352 -384 352 -384 240 -272 c 5,23,-1
 331 -181 l 5,24,25
 382 -232 382 -232 448 -248 c 5,26,-1
 448 -64 l 5,27,-1
 127 -64 l 5,28,-1
 128 64 l 5,29,-1
 448 64 l 5,0,-1
EndSplineSet
Validated: 1025
EndChar

StartChar: otilde
Encoding: 245 245 10
Width: 1024
VWidth: 1689
Flags: W
LayerCount: 2
Fore
SplineSet
575 -64 m 1,0,-1
 575 -385 l 1,1,-1
 447 -384 l 1,2,-1
 447 -64 l 1,3,-1
 255 -64 l 1,4,-1
 127 -64 l 1,5,-1
 127 0 l 2,6,7
 127 160 127 160 239 272 c 1,8,-1
 330 181 l 1,9,10
 279 130 279 130 263 64 c 1,11,-1
 447 64 l 1,12,-1
 447 256 l 1,13,-1
 447 384 l 1,14,-1
 511 384 l 2,15,16
 671 384 671 384 783 272 c 1,17,-1
 692 181 l 1,18,19
 641 232 641 232 575 248 c 1,20,-1
 575 64 l 1,21,-1
 896 64 l 1,22,-1
 895 -64 l 1,23,-1
 575 -64 l 1,0,-1
EndSplineSet
Validated: 1025
EndChar

StartChar: odieresis
Encoding: 246 246 11
Width: 1024
VWidth: 1689
Flags: W
LayerCount: 2
Fore
SplineSet
575 63 m 1,0,-1
 896 63 l 1,1,-1
 895 -65 l 1,2,-1
 575 -65 l 1,3,-1
 575 -257 l 1,4,-1
 575 -385 l 1,5,-1
 511 -385 l 2,6,7
 351 -385 351 -385 239 -273 c 1,8,-1
 330 -182 l 1,9,10
 381 -233 381 -233 447 -249 c 1,11,-1
 447 -65 l 1,12,-1
 255 -65 l 1,13,-1
 127 -65 l 1,14,-1
 127 -1 l 2,15,16
 127 159 127 159 239 271 c 1,17,-1
 330 180 l 1,18,19
 279 129 279 129 263 63 c 1,20,-1
 447 63 l 1,21,-1
 447 384 l 1,22,-1
 575 383 l 1,23,-1
 575 63 l 1,0,-1
EndSplineSet
Validated: 1025
EndChar

StartChar: divide
Encoding: 247 247 12
Width: 1024
VWidth: 1689
Flags: W
LayerCount: 2
Fore
SplineSet
448 63 m 1,0,-1
 448 384 l 1,1,-1
 576 383 l 1,2,-1
 576 63 l 1,3,-1
 768 63 l 1,4,-1
 896 63 l 1,5,-1
 896 -1 l 2,6,7
 896 -161 896 -161 784 -273 c 1,8,-1
 693 -182 l 1,9,10
 744 -131 744 -131 760 -65 c 1,11,-1
 576 -65 l 1,12,-1
 576 -257 l 1,13,-1
 576 -385 l 1,14,-1
 512 -385 l 2,15,16
 352 -385 352 -385 240 -273 c 1,17,-1
 331 -182 l 1,18,19
 382 -233 382 -233 448 -249 c 1,20,-1
 448 -65 l 1,21,-1
 127 -65 l 1,22,-1
 128 63 l 1,23,-1
 448 63 l 1,0,-1
EndSplineSet
Validated: 1025
EndChar

StartChar: ugrave
Encoding: 249 249 13
Width: 1024
VWidth: 1689
Flags: W
LayerCount: 2
Fore
SplineSet
448 -64 m 5,0,-1
 256 -64 l 5,1,-1
 128 -64 l 5,2,-1
 128 0 l 6,3,4
 128 160 128 160 240 272 c 5,5,-1
 330 182 l 5,6,7
 280 130 280 130 264 64 c 5,8,-1
 448 64 l 5,9,-1
 448 256 l 5,10,-1
 448 384 l 5,11,-1
 512 384 l 6,12,13
 672 384 672 384 784 272 c 5,14,-1
 692 182 l 5,15,16
 642 232 642 232 576 248 c 5,17,-1
 576 64 l 5,18,-1
 768 64 l 5,19,-1
 896 64 l 5,20,-1
 896 0 l 6,21,22
 896 -160 896 -160 784 -272 c 5,23,-1
 692 -180 l 5,24,25
 744 -130 744 -130 760 -64 c 5,26,-1
 576 -64 l 5,27,-1
 576 -384 l 5,28,-1
 448 -384 l 5,29,-1
 448 -64 l 5,0,-1
EndSplineSet
Validated: 1025
EndChar

StartChar: uacute
Encoding: 250 250 14
Width: 1024
VWidth: 1689
Flags: W
LayerCount: 2
Fore
SplineSet
576 -64 m 5,0,-1
 576 -256 l 5,1,-1
 576 -384 l 5,2,-1
 512 -384 l 6,3,4
 352 -384 352 -384 240 -272 c 5,5,-1
 330 -182 l 5,6,7
 382 -232 382 -232 448 -248 c 5,8,-1
 448 -64 l 5,9,-1
 256 -64 l 5,10,-1
 128 -64 l 5,11,-1
 128 0 l 6,12,13
 128 160 128 160 240 272 c 5,14,-1
 330 180 l 5,15,16
 280 130 280 130 264 64 c 5,17,-1
 448 64 l 5,18,-1
 448 256 l 5,19,-1
 448 384 l 5,20,-1
 512 384 l 6,21,22
 672 384 672 384 784 272 c 5,23,-1
 692 180 l 5,24,25
 642 232 642 232 576 248 c 5,26,-1
 576 64 l 5,27,-1
 896 64 l 5,28,-1
 896 -64 l 5,29,-1
 576 -64 l 5,0,-1
EndSplineSet
Validated: 1025
EndChar

StartChar: ucircumflex
Encoding: 251 251 15
Width: 1024
VWidth: 1689
Flags: W
LayerCount: 2
Fore
SplineSet
576 64 m 5,0,-1
 768 64 l 5,1,-1
 896 64 l 5,2,-1
 896 0 l 6,3,4
 896 -160 896 -160 784 -272 c 5,5,-1
 694 -182 l 5,6,7
 744 -130 744 -130 760 -64 c 5,8,-1
 576 -64 l 5,9,-1
 576 -256 l 5,10,-1
 576 -384 l 5,11,-1
 512 -384 l 6,12,13
 352 -384 352 -384 240 -272 c 5,14,-1
 332 -182 l 5,15,16
 382 -232 382 -232 448 -248 c 5,17,-1
 448 -64 l 5,18,-1
 256 -64 l 5,19,-1
 128 -64 l 5,20,-1
 128 0 l 6,21,22
 128 160 128 160 240 272 c 5,23,-1
 332 180 l 5,24,25
 280 130 280 130 264 64 c 5,26,-1
 448 64 l 5,27,-1
 448 384 l 5,28,-1
 576 384 l 5,29,-1
 576 64 l 5,0,-1
EndSplineSet
Validated: 1025
EndChar

StartChar: udieresis
Encoding: 252 252 16
Width: 1024
VWidth: 1689
Flags: W
LayerCount: 2
Fore
SplineSet
576 64 m 1,0,-1
 896 64 l 1,1,-1
 896 -64 l 1,2,-1
 576 -64 l 1,3,-1
 576 -385 l 1,4,-1
 448 -384 l 1,5,-1
 448 -64 l 1,6,-1
 127 -64 l 5,7,-1
 128 64 l 5,8,-1
 448 64 l 1,9,-1
 448 384 l 1,10,-1
 576 384 l 1,11,-1
 576 64 l 1,0,-1
EndSplineSet
Validated: 1
EndChar

StartChar: yacute
Encoding: 253 253 17
Width: 1024
VWidth: 1689
Flags: W
LayerCount: 2
Fore
SplineSet
576 -64 m 5,0,-1
 576 -256 l 5,1,-1
 576 -384 l 5,2,-1
 512 -384 l 6,3,4
 352 -384 352 -384 240 -272 c 5,5,-1
 331 -181 l 5,6,7
 382 -232 382 -232 448 -248 c 5,8,-1
 448 -64 l 5,9,-1
 128 -64 l 5,10,-1
 128 64 l 5,11,-1
 448 64 l 5,12,-1
 448 256 l 5,13,-1
 448 384 l 5,14,-1
 512 384 l 6,15,16
 672 384 672 384 784 272 c 5,17,-1
 693 181 l 5,18,19
 642 232 642 232 576 248 c 5,20,-1
 576 64 l 5,21,-1
 896 64 l 5,22,-1
 896 -64 l 5,23,-1
 576 -64 l 5,0,-1
EndSplineSet
Validated: 1025
EndChar

StartChar: thorn
Encoding: 254 254 18
Width: 1024
VWidth: 1689
Flags: W
LayerCount: 2
Fore
SplineSet
576 64 m 5,0,-1
 768 64 l 5,1,-1
 896 64 l 5,2,-1
 896 0 l 6,3,4
 896 -160 896 -160 784 -272 c 5,5,-1
 693 -181 l 5,6,7
 744 -130 744 -130 760 -64 c 5,8,-1
 576 -64 l 5,9,-1
 576 -384 l 5,10,-1
 448 -384 l 5,11,-1
 448 -64 l 5,12,-1
 256 -64 l 5,13,-1
 128 -64 l 5,14,-1
 128 0 l 6,15,16
 128 160 128 160 240 272 c 5,17,-1
 331 181 l 5,18,19
 280 130 280 130 264 64 c 5,20,-1
 448 64 l 5,21,-1
 448 384 l 5,22,-1
 576 384 l 5,23,-1
 576 64 l 5,0,-1
EndSplineSet
EndChar

StartChar: ydieresis
Encoding: 255 255 19
Width: 1024
VWidth: 1689
Flags: W
LayerCount: 2
Fore
SplineSet
896 0 m 6,0,1
 896 -160 896 -160 784 -272 c 5,2,-1
 693 -181 l 5,3,4
 744 -130 744 -130 760 -64 c 5,5,-1
 576 -64 l 5,6,-1
 576 -256 l 5,7,-1
 576 -384 l 5,8,-1
 512 -384 l 6,9,10
 352 -384 352 -384 240 -272 c 5,11,-1
 331 -181 l 5,12,13
 382 -232 382 -232 448 -248 c 5,14,-1
 448 -64 l 5,15,-1
 256 -64 l 5,16,-1
 128 -64 l 5,17,-1
 128 0 l 6,18,19
 128 160 128 160 240 272 c 5,20,-1
 331 181 l 5,21,22
 280 130 280 130 264 64 c 5,23,-1
 448 64 l 5,24,-1
 448 256 l 5,25,-1
 448 384 l 5,26,-1
 512 384 l 6,27,28
 672 384 672 384 784 272 c 5,29,-1
 693 181 l 5,30,31
 642 232 642 232 576 248 c 5,32,-1
 576 64 l 5,33,-1
 768 64 l 5,34,-1
 896 64 l 5,35,-1
 896 0 l 6,0,1
EndSplineSet
Validated: 1025
EndChar

StartChar: Amacron
Encoding: 256 256 20
Width: 1024
VWidth: 1689
Flags: W
LayerCount: 2
Fore
SplineSet
256 0 m 2,0,-1
 256 -256 l 1,1,-1
 448 -256 l 1,2,-1
 512 -256 l 2,3,4
 618 -256 618 -256 693 -181 c 128,-1,5
 768 -106 768 -106 768 0 c 1,6,-1
 896 0 l 1,7,8
 896 -159 896 -159 783.5 -271.5 c 128,-1,9
 671 -384 671 -384 512 -384 c 2,10,-1
 448 -384 l 1,11,-1
 256 -384 l 1,12,-1
 128 -384 l 1,13,-1
 128 0 l 2,14,15
 128 192 128 192 128 384 c 1,16,-1
 256 384 l 1,17,-1
 256 0 l 2,0,-1
EndSplineSet
Validated: 1
EndChar

StartChar: zero
Encoding: 48 48 21
Width: 1024
VWidth: 1689
Flags: W
LayerCount: 2
Fore
SplineSet
576 -64 m 5,0,-1
 576 -385 l 5,1,-1
 448 -384 l 5,2,-1
 448 -64 l 5,3,-1
 127 -64 l 5,4,-1
 128 64 l 5,5,-1
 448 64 l 5,6,-1
 448 256 l 5,7,-1
 448 384 l 5,8,-1
 512 384 l 6,9,10
 672 384 672 384 784 272 c 5,11,-1
 693 181 l 5,12,13
 642 232 642 232 576 248 c 5,14,-1
 576 64 l 5,15,-1
 896 64 l 5,16,-1
 896 -64 l 5,17,-1
 576 -64 l 5,0,-1
EndSplineSet
Validated: 1
EndChar

StartChar: one
Encoding: 49 49 22
Width: 1024
VWidth: 1689
Flags: W
LayerCount: 2
Fore
SplineSet
575 64 m 5,0,-1
 896 64 l 5,1,-1
 895 -64 l 5,2,-1
 575 -64 l 5,3,-1
 575 -385 l 5,4,-1
 447 -384 l 5,5,-1
 447 -64 l 5,6,-1
 255 -64 l 5,7,-1
 127 -64 l 5,8,-1
 127 0 l 6,9,10
 127 160 127 160 239 272 c 5,11,-1
 330 181 l 5,12,13
 279 130 279 130 263 64 c 5,14,-1
 447 64 l 5,15,-1
 447 384 l 5,16,-1
 575 384 l 5,17,-1
 575 64 l 5,0,-1
EndSplineSet
Validated: 1
EndChar

StartChar: two
Encoding: 50 50 23
Width: 1024
VWidth: 1689
Flags: W
LayerCount: 2
Fore
SplineSet
447 63 m 5,0,-1
 447 384 l 5,1,-1
 575 383 l 5,2,-1
 575 63 l 5,3,-1
 896 63 l 5,4,-1
 895 -65 l 5,5,-1
 575 -65 l 5,6,-1
 575 -257 l 5,7,-1
 575 -385 l 5,8,-1
 511 -385 l 6,9,10
 351 -385 351 -385 239 -273 c 5,11,-1
 330 -182 l 5,12,13
 381 -233 381 -233 447 -249 c 5,14,-1
 447 -65 l 5,15,-1
 127 -65 l 5,16,-1
 127 63 l 5,17,-1
 447 63 l 5,0,-1
EndSplineSet
Validated: 1
EndChar

StartChar: three
Encoding: 51 51 24
Width: 1024
VWidth: 1689
Flags: W
LayerCount: 2
Fore
SplineSet
448 -65 m 5,0,-1
 127 -65 l 5,1,-1
 128 63 l 5,2,-1
 448 63 l 5,3,-1
 448 384 l 5,4,-1
 576 383 l 5,5,-1
 576 63 l 5,6,-1
 768 63 l 5,7,-1
 896 63 l 5,8,-1
 896 -1 l 6,9,10
 896 -161 896 -161 784 -273 c 5,11,-1
 693 -182 l 5,12,13
 744 -131 744 -131 760 -65 c 5,14,-1
 576 -65 l 5,15,-1
 576 -385 l 5,16,-1
 448 -385 l 5,17,-1
 448 -65 l 5,0,-1
EndSplineSet
Validated: 1
EndChar

StartChar: four
Encoding: 52 52 25
Width: 1024
VWidth: 1689
Flags: W
LayerCount: 2
Fore
SplineSet
448 -64 m 1,0,-1
 127 -64 l 1,1,-1
 128 64 l 1,2,-1
 448 64 l 1,3,-1
 448 256 l 1,4,-1
 448 384 l 1,5,-1
 512 384 l 2,6,7
 672 384 672 384 784 272 c 1,8,-1
 693 181 l 1,9,10
 642 232 642 232 576 248 c 1,11,-1
 576 64 l 1,12,-1
 768 64 l 1,13,-1
 896 64 l 1,14,-1
 896 0 l 2,15,16
 896 -160 896 -160 784 -272 c 1,17,-1
 693 -181 l 1,18,19
 744 -130 744 -130 760 -64 c 1,20,-1
 576 -64 l 1,21,-1
 576 -385 l 1,22,-1
 448 -384 l 1,23,-1
 448 -64 l 1,0,-1
EndSplineSet
Validated: 1025
EndChar

StartChar: five
Encoding: 53 53 26
Width: 1024
VWidth: 1689
Flags: W
LayerCount: 2
Fore
SplineSet
575 -64 m 1,0,-1
 575 -385 l 1,1,-1
 447 -384 l 1,2,-1
 447 -64 l 1,3,-1
 255 -64 l 1,4,-1
 127 -64 l 1,5,-1
 127 0 l 2,6,7
 127 160 127 160 239 272 c 1,8,-1
 330 181 l 1,9,10
 279 130 279 130 263 64 c 1,11,-1
 447 64 l 1,12,-1
 447 256 l 1,13,-1
 447 384 l 1,14,-1
 511 384 l 2,15,16
 671 384 671 384 783 272 c 1,17,-1
 692 181 l 1,18,19
 641 232 641 232 575 248 c 1,20,-1
 575 64 l 1,21,-1
 896 64 l 1,22,-1
 895 -64 l 1,23,-1
 575 -64 l 1,0,-1
EndSplineSet
Validated: 1025
EndChar

StartChar: six
Encoding: 54 54 27
Width: 1024
VWidth: 1689
Flags: W
LayerCount: 2
Fore
SplineSet
575 63 m 1,0,-1
 896 63 l 1,1,-1
 895 -65 l 1,2,-1
 575 -65 l 1,3,-1
 575 -257 l 1,4,-1
 575 -385 l 1,5,-1
 511 -385 l 2,6,7
 351 -385 351 -385 239 -273 c 1,8,-1
 330 -182 l 1,9,10
 381 -233 381 -233 447 -249 c 1,11,-1
 447 -65 l 1,12,-1
 255 -65 l 1,13,-1
 127 -65 l 1,14,-1
 127 -1 l 2,15,16
 127 159 127 159 239 271 c 1,17,-1
 330 180 l 1,18,19
 279 129 279 129 263 63 c 1,20,-1
 447 63 l 1,21,-1
 447 384 l 1,22,-1
 575 383 l 1,23,-1
 575 63 l 1,0,-1
EndSplineSet
Validated: 1025
EndChar

StartChar: seven
Encoding: 55 55 28
Width: 1024
VWidth: 1689
Flags: W
LayerCount: 2
Fore
SplineSet
448 63 m 1,0,-1
 448 384 l 1,1,-1
 576 383 l 1,2,-1
 576 63 l 1,3,-1
 768 63 l 1,4,-1
 896 63 l 1,5,-1
 896 -1 l 2,6,7
 896 -161 896 -161 784 -273 c 1,8,-1
 693 -182 l 1,9,10
 744 -131 744 -131 760 -65 c 1,11,-1
 576 -65 l 1,12,-1
 576 -257 l 1,13,-1
 576 -385 l 1,14,-1
 512 -385 l 2,15,16
 352 -385 352 -385 240 -273 c 1,17,-1
 331 -182 l 1,18,19
 382 -233 382 -233 448 -249 c 1,20,-1
 448 -65 l 1,21,-1
 127 -65 l 1,22,-1
 128 63 l 1,23,-1
 448 63 l 1,0,-1
EndSplineSet
Validated: 1025
EndChar

StartChar: eight
Encoding: 56 56 29
Width: 1024
VWidth: 1689
Flags: W
LayerCount: 2
Fore
SplineSet
448 64 m 5,0,-1
 448 256 l 5,1,-1
 448 384 l 5,2,-1
 512 384 l 6,3,4
 672 384 672 384 784 272 c 5,5,-1
 693 181 l 5,6,7
 642 232 642 232 576 248 c 5,8,-1
 576 64 l 5,9,-1
 768 64 l 5,10,-1
 896 64 l 5,11,-1
 896 0 l 6,12,13
 896 -160 896 -160 784 -272 c 5,14,-1
 693 -181 l 5,15,16
 744 -130 744 -130 760 -64 c 5,17,-1
 576 -64 l 5,18,-1
 576 -256 l 5,19,-1
 576 -384 l 5,20,-1
 512 -384 l 6,21,22
 352 -384 352 -384 240 -272 c 5,23,-1
 331 -181 l 5,24,25
 382 -232 382 -232 448 -248 c 5,26,-1
 448 -64 l 5,27,-1
 127 -64 l 5,28,-1
 128 64 l 5,29,-1
 448 64 l 5,0,-1
EndSplineSet
Validated: 1025
EndChar

StartChar: nine
Encoding: 57 57 30
Width: 1024
VWidth: 1689
Flags: W
LayerCount: 2
Fore
SplineSet
448 -64 m 5,0,-1
 256 -64 l 5,1,-1
 128 -64 l 5,2,-1
 128 0 l 6,3,4
 128 160 128 160 240 272 c 5,5,-1
 330 182 l 5,6,7
 280 130 280 130 264 64 c 5,8,-1
 448 64 l 5,9,-1
 448 256 l 5,10,-1
 448 384 l 5,11,-1
 512 384 l 6,12,13
 672 384 672 384 784 272 c 5,14,-1
 692 182 l 5,15,16
 642 232 642 232 576 248 c 5,17,-1
 576 64 l 5,18,-1
 768 64 l 5,19,-1
 896 64 l 5,20,-1
 896 0 l 6,21,22
 896 -160 896 -160 784 -272 c 5,23,-1
 692 -180 l 5,24,25
 744 -130 744 -130 760 -64 c 5,26,-1
 576 -64 l 5,27,-1
 576 -384 l 5,28,-1
 448 -384 l 5,29,-1
 448 -64 l 5,0,-1
EndSplineSet
Validated: 1025
EndChar

StartChar: amacron
Encoding: 257 257 31
Width: 1024
VWidth: 1689
Flags: W
LayerCount: 2
Fore
SplineSet
448 64 m 5,0,-1
 576 64 l 5,1,-1
 576 -64 l 5,2,-1
 448 -64 l 5,3,-1
 448 64 l 5,0,-1
256 0 m 2,4,-1
 256 -256 l 1,5,-1
 448 -256 l 1,6,-1
 512 -256 l 2,7,8
 618 -256 618 -256 693 -181 c 128,-1,9
 768 -106 768 -106 768 0 c 1,10,-1
 896 0 l 1,11,12
 896 -159 896 -159 783.5 -271.5 c 128,-1,13
 671 -384 671 -384 512 -384 c 2,14,-1
 448 -384 l 1,15,-1
 256 -384 l 1,16,-1
 128 -384 l 1,17,-1
 128 0 l 2,18,19
 128 192 128 192 128 384 c 1,20,-1
 256 384 l 1,21,-1
 256 0 l 2,4,-1
EndSplineSet
Validated: 1025
EndChar

StartChar: Abreve
Encoding: 258 258 32
Width: 1024
VWidth: 1689
Flags: W
LayerCount: 2
Fore
SplineSet
512 -256 m 2,0,-1
 768 -256 l 1,1,-1
 768 -64 l 1,2,-1
 768 0 l 2,3,4
 768 106 768 106 693 181 c 128,-1,5
 618 256 618 256 512 256 c 1,6,-1
 512 384 l 1,7,8
 671 384 671 384 783.5 271.5 c 128,-1,9
 896 159 896 159 896 0 c 2,10,-1
 896 -64 l 1,11,-1
 896 -256 l 1,12,-1
 896 -384 l 1,13,-1
 512 -384 l 2,14,15
 320 -384 320 -384 128 -384 c 1,16,-1
 128 -256 l 1,17,-1
 512 -256 l 2,0,-1
EndSplineSet
Validated: 1
EndChar

StartChar: abreve
Encoding: 259 259 33
Width: 1024
VWidth: 1689
Flags: W
LayerCount: 2
Fore
SplineSet
448 64 m 5,0,-1
 576 64 l 5,1,-1
 576 -64 l 5,2,-1
 448 -64 l 5,3,-1
 448 64 l 5,0,-1
512 -256 m 2,4,-1
 768 -256 l 1,5,-1
 768 -64 l 1,6,-1
 768 0 l 2,7,8
 768 106 768 106 693 181 c 128,-1,9
 618 256 618 256 512 256 c 1,10,-1
 512 384 l 1,11,12
 671 384 671 384 783.5 271.5 c 128,-1,13
 896 159 896 159 896 0 c 2,14,-1
 896 -64 l 1,15,-1
 896 -256 l 1,16,-1
 896 -384 l 1,17,-1
 512 -384 l 2,18,19
 320 -384 320 -384 128 -384 c 1,20,-1
 128 -256 l 1,21,-1
 512 -256 l 2,4,-1
EndSplineSet
Validated: 1025
EndChar

StartChar: Aogonek
Encoding: 260 260 34
Width: 1024
VWidth: 1689
Flags: W
LayerCount: 2
Fore
SplineSet
768 0 m 2,0,-1
 768 256 l 1,1,-1
 576 256 l 1,2,-1
 512 256 l 2,3,4
 406 256 406 256 331 181 c 128,-1,5
 256 106 256 106 256 0 c 1,6,-1
 128 0 l 1,7,8
 128 159 128 159 240.5 271.5 c 128,-1,9
 353 384 353 384 512 384 c 2,10,-1
 576 384 l 1,11,-1
 768 384 l 1,12,-1
 896 384 l 1,13,-1
 896 0 l 2,14,15
 896 -192 896 -192 896 -384 c 1,16,-1
 768 -384 l 1,17,-1
 768 0 l 2,0,-1
EndSplineSet
Validated: 1
EndChar

StartChar: aogonek
Encoding: 261 261 35
Width: 1024
VWidth: 1689
Flags: W
LayerCount: 2
Fore
SplineSet
448 64 m 5,0,-1
 576 64 l 5,1,-1
 576 -64 l 5,2,-1
 448 -64 l 5,3,-1
 448 64 l 5,0,-1
768 0 m 2,4,-1
 768 256 l 1,5,-1
 576 256 l 1,6,-1
 512 256 l 2,7,8
 406 256 406 256 331 181 c 128,-1,9
 256 106 256 106 256 0 c 1,10,-1
 128 0 l 1,11,12
 128 159 128 159 240.5 271.5 c 128,-1,13
 353 384 353 384 512 384 c 2,14,-1
 576 384 l 1,15,-1
 768 384 l 1,16,-1
 896 384 l 1,17,-1
 896 0 l 2,18,19
 896 -192 896 -192 896 -384 c 1,20,-1
 768 -384 l 1,21,-1
 768 0 l 2,4,-1
EndSplineSet
Validated: 1025
EndChar

StartChar: Cacute
Encoding: 262 262 36
Width: 1024
VWidth: 1689
Flags: W
LayerCount: 2
Fore
SplineSet
512 256 m 2,0,-1
 256 256 l 1,1,-1
 256 64 l 1,2,-1
 256 0 l 2,3,4
 256 -106 256 -106 331 -181 c 128,-1,5
 406 -256 406 -256 512 -256 c 1,6,-1
 512 -384 l 1,7,8
 353 -384 353 -384 240.5 -271.5 c 128,-1,9
 128 -159 128 -159 128 0 c 2,10,-1
 128 64 l 1,11,-1
 128 256 l 1,12,-1
 128 384 l 1,13,-1
 512 384 l 2,14,15
 704 384 704 384 896 384 c 1,16,-1
 896 256 l 1,17,-1
 512 256 l 2,0,-1
EndSplineSet
Validated: 1
EndChar

StartChar: cacute
Encoding: 263 263 37
Width: 1024
VWidth: 1689
Flags: W
LayerCount: 2
Fore
SplineSet
448 64 m 5,0,-1
 576 64 l 5,1,-1
 576 -64 l 5,2,-1
 448 -64 l 5,3,-1
 448 64 l 5,0,-1
512 256 m 2,4,-1
 256 256 l 1,5,-1
 256 64 l 1,6,-1
 256 0 l 2,7,8
 256 -106 256 -106 331 -181 c 128,-1,9
 406 -256 406 -256 512 -256 c 1,10,-1
 512 -384 l 1,11,12
 353 -384 353 -384 240.5 -271.5 c 128,-1,13
 128 -159 128 -159 128 0 c 2,14,-1
 128 64 l 1,15,-1
 128 256 l 1,16,-1
 128 384 l 1,17,-1
 512 384 l 2,18,19
 704 384 704 384 896 384 c 1,20,-1
 896 256 l 1,21,-1
 512 256 l 2,4,-1
EndSplineSet
Validated: 1025
EndChar

StartChar: Ccircumflex
Encoding: 264 264 38
Width: 1024
VWidth: 1689
Flags: W
LayerCount: 2
Fore
SplineSet
512 256 m 2,0,-1
 128 256 l 1,1,-1
 128 384 l 1,2,3
 320 384 320 384 512 384 c 2,4,5
 512 384 512 384 896 384 c 1,6,-1
 896 256 l 1,7,-1
 896 64 l 1,8,-1
 896 0 l 2,9,10
 896 -159 896 -159 783.5 -271.5 c 128,-1,11
 671 -384 671 -384 512 -384 c 1,12,13
 512 -384 512 -384 512 -256 c 1,14,15
 618 -256 618 -256 693 -181 c 128,-1,16
 768 -106 768 -106 768 0 c 2,17,18
 768 0 768 0 768 64 c 1,19,-1
 768 256 l 1,20,-1
 512 256 l 2,0,-1
EndSplineSet
Validated: 1
EndChar

StartChar: ccircumflex
Encoding: 265 265 39
Width: 1024
VWidth: 1689
Flags: W
LayerCount: 2
Fore
SplineSet
448 64 m 5,0,-1
 576 64 l 5,1,-1
 576 -64 l 5,2,-1
 448 -64 l 5,3,-1
 448 64 l 5,0,-1
512 256 m 2,4,-1
 128 256 l 1,5,-1
 128 384 l 1,6,7
 320 384 320 384 512 384 c 2,8,9
 512 384 512 384 896 384 c 1,10,-1
 896 256 l 1,11,-1
 896 64 l 1,12,-1
 896 0 l 2,13,14
 896 -159 896 -159 783.5 -271.5 c 128,-1,15
 671 -384 671 -384 512 -384 c 1,16,17
 512 -384 512 -384 512 -256 c 1,18,19
 618 -256 618 -256 693 -181 c 128,-1,20
 768 -106 768 -106 768 0 c 2,21,22
 768 0 768 0 768 64 c 1,23,-1
 768 256 l 1,24,-1
 512 256 l 2,4,-1
EndSplineSet
Validated: 1025
EndChar

StartChar: Cdotaccent
Encoding: 266 266 40
Width: 1024
VWidth: 1689
Flags: W
LayerCount: 2
Fore
SplineSet
256 0 m 2,0,-1
 256 -384 l 1,1,-1
 128 -384 l 1,2,3
 128 -192 128 -192 128 0 c 2,4,5
 128 0 128 0 128 384 c 1,6,-1
 256 384 l 1,7,-1
 448 384 l 1,8,-1
 512 384 l 2,9,10
 671 384 671 384 783.5 271.5 c 128,-1,11
 896 159 896 159 896 0 c 1,12,13
 896 0 896 0 768 0 c 1,14,15
 768 106 768 106 693 181 c 128,-1,16
 618 256 618 256 512 256 c 2,17,18
 512 256 512 256 448 256 c 1,19,-1
 256 256 l 1,20,-1
 256 0 l 2,0,-1
EndSplineSet
Validated: 1
EndChar

StartChar: cdotaccent
Encoding: 267 267 41
Width: 1024
VWidth: 1689
Flags: W
LayerCount: 2
Fore
SplineSet
448 64 m 5,0,-1
 576 64 l 5,1,-1
 576 -64 l 5,2,-1
 448 -64 l 5,3,-1
 448 64 l 5,0,-1
256 0 m 2,4,-1
 256 -384 l 1,5,-1
 128 -384 l 1,6,7
 128 -192 128 -192 128 0 c 2,8,9
 128 0 128 0 128 384 c 1,10,-1
 256 384 l 1,11,-1
 448 384 l 1,12,-1
 512 384 l 2,13,14
 671 384 671 384 783.5 271.5 c 128,-1,15
 896 159 896 159 896 0 c 1,16,17
 896 0 896 0 768 0 c 1,18,19
 768 106 768 106 693 181 c 128,-1,20
 618 256 618 256 512 256 c 2,21,22
 512 256 512 256 448 256 c 1,23,-1
 256 256 l 1,24,-1
 256 0 l 2,4,-1
EndSplineSet
Validated: 1025
EndChar

StartChar: Ccaron
Encoding: 268 268 42
Width: 1024
VWidth: 1689
Flags: W
LayerCount: 2
Fore
SplineSet
512 -256 m 2,0,-1
 896 -256 l 1,1,-1
 896 -384 l 1,2,3
 704 -384 704 -384 512 -384 c 2,4,5
 512 -384 512 -384 128 -384 c 1,6,-1
 128 -256 l 1,7,-1
 128 -64 l 1,8,-1
 128 0 l 2,9,10
 128 159 128 159 240.5 271.5 c 128,-1,11
 353 384 353 384 512 384 c 1,12,13
 512 384 512 384 512 256 c 1,14,15
 406 256 406 256 331 181 c 128,-1,16
 256 106 256 106 256 0 c 2,17,18
 256 0 256 0 256 -64 c 1,19,-1
 256 -256 l 1,20,-1
 512 -256 l 2,0,-1
EndSplineSet
Validated: 1
EndChar

StartChar: ccaron
Encoding: 269 269 43
Width: 1024
VWidth: 1689
Flags: W
LayerCount: 2
Fore
SplineSet
448 64 m 5,0,-1
 576 64 l 5,1,-1
 576 -64 l 5,2,-1
 448 -64 l 5,3,-1
 448 64 l 5,0,-1
512 -256 m 2,4,-1
 896 -256 l 1,5,-1
 896 -384 l 1,6,7
 704 -384 704 -384 512 -384 c 2,8,9
 512 -384 512 -384 128 -384 c 1,10,-1
 128 -256 l 1,11,-1
 128 -64 l 1,12,-1
 128 0 l 2,13,14
 128 159 128 159 240.5 271.5 c 128,-1,15
 353 384 353 384 512 384 c 1,16,17
 512 384 512 384 512 256 c 1,18,19
 406 256 406 256 331 181 c 128,-1,20
 256 106 256 106 256 0 c 2,21,22
 256 0 256 0 256 -64 c 1,23,-1
 256 -256 l 1,24,-1
 512 -256 l 2,4,-1
EndSplineSet
Validated: 1025
EndChar

StartChar: Dcaron
Encoding: 270 270 44
Width: 1024
VWidth: 1689
Flags: W
LayerCount: 2
Fore
SplineSet
768 0 m 2,0,-1
 768 384 l 1,1,-1
 896 384 l 1,2,3
 896 192 896 192 896 0 c 2,4,5
 896 0 896 0 896 -384 c 1,6,-1
 768 -384 l 1,7,-1
 576 -384 l 1,8,-1
 512 -384 l 2,9,10
 353 -384 353 -384 240.5 -271.5 c 128,-1,11
 128 -159 128 -159 128 0 c 1,12,13
 128 0 128 0 256 0 c 1,14,15
 256 -106 256 -106 331 -181 c 128,-1,16
 406 -256 406 -256 512 -256 c 2,17,18
 512 -256 512 -256 576 -256 c 1,19,-1
 768 -256 l 1,20,-1
 768 0 l 2,0,-1
EndSplineSet
Validated: 1
EndChar

StartChar: dcaron
Encoding: 271 271 45
Width: 1024
VWidth: 1689
Flags: W
LayerCount: 2
Fore
SplineSet
448 64 m 5,0,-1
 576 64 l 5,1,-1
 576 -64 l 5,2,-1
 448 -64 l 5,3,-1
 448 64 l 5,0,-1
768 0 m 2,4,-1
 768 384 l 1,5,-1
 896 384 l 1,6,7
 896 192 896 192 896 0 c 2,8,9
 896 0 896 0 896 -384 c 1,10,-1
 768 -384 l 1,11,-1
 576 -384 l 1,12,-1
 512 -384 l 2,13,14
 353 -384 353 -384 240.5 -271.5 c 128,-1,15
 128 -159 128 -159 128 0 c 1,16,17
 128 0 128 0 256 0 c 1,18,19
 256 -106 256 -106 331 -181 c 128,-1,20
 406 -256 406 -256 512 -256 c 2,21,22
 512 -256 512 -256 576 -256 c 1,23,-1
 768 -256 l 1,24,-1
 768 0 l 2,4,-1
EndSplineSet
Validated: 1025
EndChar

StartChar: Dcroat
Encoding: 272 272 46
Width: 1024
VWidth: 1689
Flags: W
LayerCount: 2
Fore
SplineSet
256 64 m 5,0,-1
 256 0 l 6,1,2
 256 -106 256 -106 331 -181 c 132,-1,3
 406 -256 406 -256 512 -256 c 132,-1,4
 618 -256 618 -256 693 -181 c 132,-1,5
 768 -106 768 -106 768 0 c 6,6,-1
 768 64 l 5,7,-1
 896 64 l 5,8,-1
 896 0 l 6,9,10
 896 -159 896 -159 783.5 -271.5 c 132,-1,11
 671 -384 671 -384 512 -384 c 132,-1,12
 353 -384 353 -384 240.5 -271.5 c 132,-1,13
 128 -159 128 -159 128 0 c 6,14,-1
 128 64 l 5,15,-1
 128 384 l 5,16,-1
 256 384 l 5,17,-1
 256 64 l 5,0,-1
EndSplineSet
Validated: 1
EndChar

StartChar: dcroat
Encoding: 273 273 47
Width: 1024
VWidth: 1689
Flags: W
LayerCount: 2
Fore
SplineSet
448 64 m 5,0,-1
 576 64 l 5,1,-1
 576 -64 l 5,2,-1
 448 -64 l 5,3,-1
 448 64 l 5,0,-1
256 64 m 1,4,-1
 256 0 l 2,5,6
 256 -106 256 -106 331 -181 c 128,-1,7
 406 -256 406 -256 512 -256 c 128,-1,8
 618 -256 618 -256 693 -181 c 128,-1,9
 768 -106 768 -106 768 0 c 2,10,-1
 768 64 l 1,11,-1
 896 64 l 1,12,-1
 896 0 l 2,13,14
 896 -159 896 -159 783.5 -271.5 c 128,-1,15
 671 -384 671 -384 512 -384 c 128,-1,16
 353 -384 353 -384 240.5 -271.5 c 128,-1,17
 128 -159 128 -159 128 0 c 2,18,-1
 128 64 l 1,19,-1
 128 384 l 1,20,-1
 256 384 l 1,21,-1
 256 64 l 1,4,-1
EndSplineSet
Validated: 1025
EndChar

StartChar: Emacron
Encoding: 274 274 48
Width: 1024
VWidth: 1689
Flags: W
LayerCount: 2
Fore
SplineSet
448 -256 m 5,0,-1
 512 -256 l 6,1,2
 618 -256 618 -256 693 -181 c 132,-1,3
 768 -106 768 -106 768 0 c 132,-1,4
 768 106 768 106 693 181 c 132,-1,5
 618 256 618 256 512 256 c 6,6,-1
 448 256 l 5,7,-1
 448 384 l 5,8,-1
 512 384 l 6,9,10
 671 384 671 384 783.5 271.5 c 132,-1,11
 896 159 896 159 896 0 c 132,-1,12
 896 -159 896 -159 783.5 -271.5 c 132,-1,13
 671 -384 671 -384 512 -384 c 6,14,-1
 448 -384 l 5,15,-1
 128 -384 l 5,16,-1
 128 -256 l 5,17,-1
 448 -256 l 5,0,-1
EndSplineSet
Validated: 1
EndChar

StartChar: emacron
Encoding: 275 275 49
Width: 1024
VWidth: 1689
Flags: W
LayerCount: 2
Fore
SplineSet
448 64 m 5,0,-1
 576 64 l 5,1,-1
 576 -64 l 5,2,-1
 448 -64 l 5,3,-1
 448 64 l 5,0,-1
448 -256 m 1,4,-1
 512 -256 l 2,5,6
 618 -256 618 -256 693 -181 c 128,-1,7
 768 -106 768 -106 768 0 c 128,-1,8
 768 106 768 106 693 181 c 128,-1,9
 618 256 618 256 512 256 c 2,10,-1
 448 256 l 1,11,-1
 448 384 l 1,12,-1
 512 384 l 2,13,14
 671 384 671 384 783.5 271.5 c 128,-1,15
 896 159 896 159 896 0 c 128,-1,16
 896 -159 896 -159 783.5 -271.5 c 128,-1,17
 671 -384 671 -384 512 -384 c 2,18,-1
 448 -384 l 1,19,-1
 128 -384 l 1,20,-1
 128 -256 l 1,21,-1
 448 -256 l 1,4,-1
EndSplineSet
Validated: 1025
EndChar

StartChar: Ebreve
Encoding: 276 276 50
Width: 1024
VWidth: 1689
Flags: W
LayerCount: 2
Fore
SplineSet
768 -64 m 5,0,-1
 768 0 l 6,1,2
 768 106 768 106 693 181 c 132,-1,3
 618 256 618 256 512 256 c 132,-1,4
 406 256 406 256 331 181 c 132,-1,5
 256 106 256 106 256 0 c 6,6,-1
 256 -64 l 5,7,-1
 128 -64 l 5,8,-1
 128 0 l 6,9,10
 128 159 128 159 240.5 271.5 c 132,-1,11
 353 384 353 384 512 384 c 132,-1,12
 671 384 671 384 783.5 271.5 c 132,-1,13
 896 159 896 159 896 0 c 6,14,-1
 896 -64 l 5,15,-1
 896 -384 l 5,16,-1
 768 -384 l 5,17,-1
 768 -64 l 5,0,-1
EndSplineSet
Validated: 1
EndChar

StartChar: ebreve
Encoding: 277 277 51
Width: 1024
VWidth: 1689
Flags: W
LayerCount: 2
Fore
SplineSet
448 64 m 5,0,-1
 576 64 l 5,1,-1
 576 -64 l 5,2,-1
 448 -64 l 5,3,-1
 448 64 l 5,0,-1
768 -64 m 1,4,-1
 768 0 l 2,5,6
 768 106 768 106 693 181 c 128,-1,7
 618 256 618 256 512 256 c 128,-1,8
 406 256 406 256 331 181 c 128,-1,9
 256 106 256 106 256 0 c 2,10,-1
 256 -64 l 1,11,-1
 128 -64 l 1,12,-1
 128 0 l 2,13,14
 128 159 128 159 240.5 271.5 c 128,-1,15
 353 384 353 384 512 384 c 128,-1,16
 671 384 671 384 783.5 271.5 c 128,-1,17
 896 159 896 159 896 0 c 2,18,-1
 896 -64 l 1,19,-1
 896 -384 l 1,20,-1
 768 -384 l 1,21,-1
 768 -64 l 1,4,-1
EndSplineSet
Validated: 1025
EndChar

StartChar: Edotaccent
Encoding: 278 278 52
Width: 1024
VWidth: 1689
Flags: W
LayerCount: 2
Fore
SplineSet
576 256 m 5,0,-1
 512 256 l 6,1,2
 406 256 406 256 331 181 c 132,-1,3
 256 106 256 106 256 0 c 132,-1,4
 256 -106 256 -106 331 -181 c 132,-1,5
 406 -256 406 -256 512 -256 c 6,6,-1
 576 -256 l 5,7,-1
 576 -384 l 5,8,-1
 512 -384 l 6,9,10
 353 -384 353 -384 240.5 -271.5 c 132,-1,11
 128 -159 128 -159 128 0 c 132,-1,12
 128 159 128 159 240.5 271.5 c 132,-1,13
 353 384 353 384 512 384 c 6,14,-1
 576 384 l 5,15,-1
 896 384 l 5,16,-1
 896 256 l 5,17,-1
 576 256 l 5,0,-1
EndSplineSet
Validated: 1
EndChar

StartChar: edotaccent
Encoding: 279 279 53
Width: 1024
VWidth: 1689
Flags: W
LayerCount: 2
Fore
SplineSet
448 64 m 5,0,-1
 576 64 l 5,1,-1
 576 -64 l 5,2,-1
 448 -64 l 5,3,-1
 448 64 l 5,0,-1
576 256 m 1,4,-1
 512 256 l 2,5,6
 406 256 406 256 331 181 c 128,-1,7
 256 106 256 106 256 0 c 128,-1,8
 256 -106 256 -106 331 -181 c 128,-1,9
 406 -256 406 -256 512 -256 c 2,10,-1
 576 -256 l 1,11,-1
 576 -384 l 1,12,-1
 512 -384 l 2,13,14
 353 -384 353 -384 240.5 -271.5 c 128,-1,15
 128 -159 128 -159 128 0 c 128,-1,16
 128 159 128 159 240.5 271.5 c 128,-1,17
 353 384 353 384 512 384 c 2,18,-1
 576 384 l 1,19,-1
 896 384 l 1,20,-1
 896 256 l 1,21,-1
 576 256 l 1,4,-1
EndSplineSet
Validated: 1025
EndChar

StartChar: Eogonek
Encoding: 280 280 54
Width: 1024
VWidth: 1689
Flags: W
LayerCount: 2
Fore
SplineSet
448 256 m 1,0,-1
 128 256 l 1,1,-1
 128 384 l 1,2,-1
 448 384 l 1,3,-1
 512 384 l 2,4,5
 671 384 671 384 783.5 271.5 c 128,-1,6
 896 159 896 159 896 0 c 128,-1,7
 896 -159 896 -159 783.5 -271.5 c 128,-1,8
 671 -384 671 -384 512 -384 c 2,9,10
 512 -384 512 -384 448 -384 c 1,11,-1
 448 -256 l 1,12,-1
 512 -256 l 2,13,14
 618 -256 618 -256 693 -181 c 128,-1,15
 768 -106 768 -106 768 0 c 128,-1,16
 768 106 768 106 693 181 c 128,-1,17
 618 256 618 256 512 256 c 2,18,19
 512 256 512 256 448 256 c 1,0,-1
EndSplineSet
Validated: 1
EndChar

StartChar: eogonek
Encoding: 281 281 55
Width: 1024
VWidth: 1689
Flags: W
LayerCount: 2
Fore
SplineSet
448 64 m 5,0,-1
 576 64 l 5,1,-1
 576 -64 l 5,2,-1
 448 -64 l 5,3,-1
 448 64 l 5,0,-1
448 256 m 1,4,-1
 128 256 l 1,5,-1
 128 384 l 1,6,-1
 448 384 l 1,7,-1
 512 384 l 2,8,9
 671 384 671 384 783.5 271.5 c 128,-1,10
 896 159 896 159 896 0 c 128,-1,11
 896 -159 896 -159 783.5 -271.5 c 128,-1,12
 671 -384 671 -384 512 -384 c 2,13,14
 512 -384 512 -384 448 -384 c 1,15,-1
 448 -256 l 1,16,-1
 512 -256 l 2,17,18
 618 -256 618 -256 693 -181 c 128,-1,19
 768 -106 768 -106 768 0 c 128,-1,20
 768 106 768 106 693 181 c 128,-1,21
 618 256 618 256 512 256 c 2,22,23
 512 256 512 256 448 256 c 1,4,-1
EndSplineSet
Validated: 1025
EndChar

StartChar: Ecaron
Encoding: 282 282 56
Width: 1024
VWidth: 1689
Flags: W
LayerCount: 2
Fore
SplineSet
256 -64 m 1,0,-1
 256 -384 l 1,1,-1
 128 -384 l 1,2,-1
 128 -64 l 1,3,-1
 128 0 l 2,4,5
 128 159 128 159 240.5 271.5 c 128,-1,6
 353 384 353 384 512 384 c 128,-1,7
 671 384 671 384 783.5 271.5 c 128,-1,8
 896 159 896 159 896 0 c 2,9,10
 896 0 896 0 896 -64 c 1,11,-1
 768 -64 l 1,12,-1
 768 0 l 2,13,14
 768 106 768 106 693 181 c 128,-1,15
 618 256 618 256 512 256 c 128,-1,16
 406 256 406 256 331 181 c 128,-1,17
 256 106 256 106 256 0 c 2,18,19
 256 0 256 0 256 -64 c 1,0,-1
EndSplineSet
Validated: 1
EndChar

StartChar: ecaron
Encoding: 283 283 57
Width: 1024
VWidth: 1689
Flags: W
LayerCount: 2
Fore
SplineSet
448 64 m 5,0,-1
 576 64 l 5,1,-1
 576 -64 l 5,2,-1
 448 -64 l 5,3,-1
 448 64 l 5,0,-1
256 -64 m 1,4,-1
 256 -384 l 1,5,-1
 128 -384 l 1,6,-1
 128 -64 l 1,7,-1
 128 0 l 2,8,9
 128 159 128 159 240.5 271.5 c 128,-1,10
 353 384 353 384 512 384 c 128,-1,11
 671 384 671 384 783.5 271.5 c 128,-1,12
 896 159 896 159 896 0 c 2,13,14
 896 0 896 0 896 -64 c 1,15,-1
 768 -64 l 1,16,-1
 768 0 l 2,17,18
 768 106 768 106 693 181 c 128,-1,19
 618 256 618 256 512 256 c 128,-1,20
 406 256 406 256 331 181 c 128,-1,21
 256 106 256 106 256 0 c 2,22,23
 256 0 256 0 256 -64 c 1,4,-1
EndSplineSet
Validated: 1025
EndChar

StartChar: Gcircumflex
Encoding: 284 284 58
Width: 1024
VWidth: 1689
Flags: W
LayerCount: 2
Fore
SplineSet
576 -256 m 1,0,-1
 896 -256 l 1,1,-1
 896 -384 l 1,2,-1
 576 -384 l 1,3,-1
 512 -384 l 2,4,5
 353 -384 353 -384 240.5 -271.5 c 128,-1,6
 128 -159 128 -159 128 0 c 128,-1,7
 128 159 128 159 240.5 271.5 c 128,-1,8
 353 384 353 384 512 384 c 2,9,10
 512 384 512 384 576 384 c 1,11,-1
 576 256 l 1,12,-1
 512 256 l 2,13,14
 406 256 406 256 331 181 c 128,-1,15
 256 106 256 106 256 0 c 128,-1,16
 256 -106 256 -106 331 -181 c 128,-1,17
 406 -256 406 -256 512 -256 c 2,18,19
 512 -256 512 -256 576 -256 c 1,0,-1
EndSplineSet
Validated: 1
EndChar

StartChar: gcircumflex
Encoding: 285 285 59
Width: 1024
VWidth: 1689
Flags: W
LayerCount: 2
Fore
SplineSet
448 64 m 5,0,-1
 576 64 l 5,1,-1
 576 -64 l 5,2,-1
 448 -64 l 5,3,-1
 448 64 l 5,0,-1
576 -256 m 1,4,-1
 896 -256 l 1,5,-1
 896 -384 l 1,6,-1
 576 -384 l 1,7,-1
 512 -384 l 2,8,9
 353 -384 353 -384 240.5 -271.5 c 128,-1,10
 128 -159 128 -159 128 0 c 128,-1,11
 128 159 128 159 240.5 271.5 c 128,-1,12
 353 384 353 384 512 384 c 2,13,14
 512 384 512 384 576 384 c 1,15,-1
 576 256 l 1,16,-1
 512 256 l 2,17,18
 406 256 406 256 331 181 c 128,-1,19
 256 106 256 106 256 0 c 128,-1,20
 256 -106 256 -106 331 -181 c 128,-1,21
 406 -256 406 -256 512 -256 c 2,22,23
 512 -256 512 -256 576 -256 c 1,4,-1
EndSplineSet
Validated: 1025
EndChar

StartChar: Gbreve
Encoding: 286 286 60
Width: 1024
VWidth: 1689
Flags: W
LayerCount: 2
Fore
SplineSet
768 64 m 1,0,-1
 768 384 l 1,1,-1
 896 384 l 1,2,-1
 896 64 l 1,3,-1
 896 0 l 2,4,5
 896 -159 896 -159 783.5 -271.5 c 128,-1,6
 671 -384 671 -384 512 -384 c 128,-1,7
 353 -384 353 -384 240.5 -271.5 c 128,-1,8
 128 -159 128 -159 128 0 c 2,9,10
 128 0 128 0 128 64 c 1,11,-1
 256 64 l 1,12,-1
 256 0 l 2,13,14
 256 -106 256 -106 331 -181 c 128,-1,15
 406 -256 406 -256 512 -256 c 128,-1,16
 618 -256 618 -256 693 -181 c 128,-1,17
 768 -106 768 -106 768 0 c 2,18,19
 768 0 768 0 768 64 c 1,0,-1
EndSplineSet
Validated: 1
EndChar

StartChar: gbreve
Encoding: 287 287 61
Width: 1024
VWidth: 1689
Flags: W
LayerCount: 2
Fore
SplineSet
448 64 m 5,0,-1
 576 64 l 5,1,-1
 576 -64 l 5,2,-1
 448 -64 l 5,3,-1
 448 64 l 5,0,-1
768 64 m 1,4,-1
 768 384 l 1,5,-1
 896 384 l 1,6,-1
 896 64 l 1,7,-1
 896 0 l 2,8,9
 896 -159 896 -159 783.5 -271.5 c 128,-1,10
 671 -384 671 -384 512 -384 c 128,-1,11
 353 -384 353 -384 240.5 -271.5 c 128,-1,12
 128 -159 128 -159 128 0 c 2,13,14
 128 0 128 0 128 64 c 1,15,-1
 256 64 l 1,16,-1
 256 0 l 2,17,18
 256 -106 256 -106 331 -181 c 128,-1,19
 406 -256 406 -256 512 -256 c 128,-1,20
 618 -256 618 -256 693 -181 c 128,-1,21
 768 -106 768 -106 768 0 c 2,22,23
 768 0 768 0 768 64 c 1,4,-1
EndSplineSet
Validated: 1025
EndChar

StartChar: Gdotaccent
Encoding: 288 288 62
Width: 1024
VWidth: 1689
Flags: W
LayerCount: 2
Fore
SplineSet
256 64 m 5,0,-1
 256 0 l 6,1,2
 256 -106 256 -106 331 -181 c 132,-1,3
 406 -256 406 -256 512 -256 c 132,-1,4
 618 -256 618 -256 693 -181 c 132,-1,5
 768 -106 768 -106 768 0 c 6,6,-1
 768 64 l 5,7,-1
 896 64 l 5,8,-1
 896 0 l 6,9,10
 896 -159 896 -159 783.5 -271.5 c 132,-1,11
 671 -384 671 -384 512 -384 c 132,-1,12
 353 -384 353 -384 240.5 -271.5 c 132,-1,13
 128 -159 128 -159 128 0 c 6,14,-1
 128 64 l 5,15,-1
 128 256 l 5,16,-1
 128 384 l 5,17,-1
 256 384 l 5,18,-1
 576 384 l 5,19,-1
 576 256 l 5,20,-1
 256 256 l 5,21,-1
 256 64 l 5,0,-1
EndSplineSet
Validated: 1025
EndChar

StartChar: gdotaccent
Encoding: 289 289 63
Width: 1024
VWidth: 1689
Flags: W
LayerCount: 2
Fore
SplineSet
448 64 m 5,0,-1
 576 64 l 5,1,-1
 576 -64 l 5,2,-1
 448 -64 l 5,3,-1
 448 64 l 5,0,-1
256 64 m 1,4,-1
 256 0 l 2,5,6
 256 -106 256 -106 331 -181 c 128,-1,7
 406 -256 406 -256 512 -256 c 128,-1,8
 618 -256 618 -256 693 -181 c 128,-1,9
 768 -106 768 -106 768 0 c 2,10,-1
 768 64 l 1,11,-1
 896 64 l 1,12,-1
 896 0 l 2,13,14
 896 -159 896 -159 783.5 -271.5 c 128,-1,15
 671 -384 671 -384 512 -384 c 128,-1,16
 353 -384 353 -384 240.5 -271.5 c 128,-1,17
 128 -159 128 -159 128 0 c 2,18,-1
 128 64 l 1,19,-1
 128 256 l 1,20,-1
 128 384 l 1,21,-1
 256 384 l 1,22,-1
 576 384 l 1,23,-1
 576 256 l 1,24,-1
 256 256 l 1,25,-1
 256 64 l 1,4,-1
EndSplineSet
Validated: 1025
EndChar

StartChar: uni0122
Encoding: 290 290 64
Width: 1024
VWidth: 1689
Flags: W
LayerCount: 2
Fore
SplineSet
448 -256 m 5,0,-1
 512 -256 l 6,1,2
 618 -256 618 -256 693 -181 c 132,-1,3
 768 -106 768 -106 768 0 c 132,-1,4
 768 106 768 106 693 181 c 132,-1,5
 618 256 618 256 512 256 c 6,6,-1
 448 256 l 5,7,-1
 448 384 l 5,8,-1
 512 384 l 6,9,10
 671 384 671 384 783.5 271.5 c 132,-1,11
 896 159 896 159 896 0 c 132,-1,12
 896 -159 896 -159 783.5 -271.5 c 132,-1,13
 671 -384 671 -384 512 -384 c 6,14,-1
 448 -384 l 5,15,-1
 256 -384 l 5,16,-1
 128 -384 l 5,17,-1
 128 -256 l 5,18,-1
 128 64 l 5,19,-1
 256 64 l 5,20,-1
 256 -256 l 5,21,-1
 448 -256 l 5,0,-1
EndSplineSet
Validated: 1025
EndChar

StartChar: uni0123
Encoding: 291 291 65
Width: 1024
VWidth: 1689
Flags: W
LayerCount: 2
Fore
SplineSet
448 64 m 5,0,-1
 576 64 l 5,1,-1
 576 -64 l 5,2,-1
 448 -64 l 5,3,-1
 448 64 l 5,0,-1
448 -256 m 1,4,-1
 512 -256 l 2,5,6
 618 -256 618 -256 693 -181 c 128,-1,7
 768 -106 768 -106 768 0 c 128,-1,8
 768 106 768 106 693 181 c 128,-1,9
 618 256 618 256 512 256 c 2,10,-1
 448 256 l 1,11,-1
 448 384 l 1,12,-1
 512 384 l 2,13,14
 671 384 671 384 783.5 271.5 c 128,-1,15
 896 159 896 159 896 0 c 128,-1,16
 896 -159 896 -159 783.5 -271.5 c 128,-1,17
 671 -384 671 -384 512 -384 c 2,18,-1
 448 -384 l 1,19,-1
 256 -384 l 1,20,-1
 128 -384 l 1,21,-1
 128 -256 l 1,22,-1
 128 64 l 1,23,-1
 256 64 l 1,24,-1
 256 -256 l 1,25,-1
 448 -256 l 1,4,-1
EndSplineSet
Validated: 1025
EndChar

StartChar: Hcircumflex
Encoding: 292 292 66
Width: 1024
VWidth: 1689
Flags: W
LayerCount: 2
Fore
SplineSet
768 -64 m 5,0,-1
 768 0 l 6,1,2
 768 106 768 106 693 181 c 132,-1,3
 618 256 618 256 512 256 c 132,-1,4
 406 256 406 256 331 181 c 132,-1,5
 256 106 256 106 256 0 c 6,6,-1
 256 -64 l 5,7,-1
 128 -64 l 5,8,-1
 128 0 l 6,9,10
 128 159 128 159 240.5 271.5 c 132,-1,11
 353 384 353 384 512 384 c 132,-1,12
 671 384 671 384 783.5 271.5 c 132,-1,13
 896 159 896 159 896 0 c 6,14,-1
 896 -64 l 5,15,-1
 896 -256 l 5,16,-1
 896 -384 l 5,17,-1
 768 -384 l 5,18,-1
 448 -384 l 5,19,-1
 448 -256 l 5,20,-1
 768 -256 l 5,21,-1
 768 -64 l 5,0,-1
EndSplineSet
Validated: 1025
EndChar

StartChar: hcircumflex
Encoding: 293 293 67
Width: 1024
VWidth: 1689
Flags: W
LayerCount: 2
Fore
SplineSet
448 64 m 5,0,-1
 576 64 l 5,1,-1
 576 -64 l 5,2,-1
 448 -64 l 5,3,-1
 448 64 l 5,0,-1
768 -64 m 1,4,-1
 768 0 l 2,5,6
 768 106 768 106 693 181 c 128,-1,7
 618 256 618 256 512 256 c 128,-1,8
 406 256 406 256 331 181 c 128,-1,9
 256 106 256 106 256 0 c 2,10,-1
 256 -64 l 1,11,-1
 128 -64 l 1,12,-1
 128 0 l 2,13,14
 128 159 128 159 240.5 271.5 c 128,-1,15
 353 384 353 384 512 384 c 128,-1,16
 671 384 671 384 783.5 271.5 c 128,-1,17
 896 159 896 159 896 0 c 2,18,-1
 896 -64 l 1,19,-1
 896 -256 l 1,20,-1
 896 -384 l 1,21,-1
 768 -384 l 1,22,-1
 448 -384 l 1,23,-1
 448 -256 l 1,24,-1
 768 -256 l 1,25,-1
 768 -64 l 1,4,-1
EndSplineSet
Validated: 1025
EndChar

StartChar: Hbar
Encoding: 294 294 68
Width: 1024
VWidth: 1689
Flags: W
LayerCount: 2
Fore
SplineSet
576 256 m 5,0,-1
 512 256 l 6,1,2
 406 256 406 256 331 181 c 132,-1,3
 256 106 256 106 256 0 c 132,-1,4
 256 -106 256 -106 331 -181 c 132,-1,5
 406 -256 406 -256 512 -256 c 6,6,-1
 576 -256 l 5,7,-1
 576 -384 l 5,8,-1
 512 -384 l 6,9,10
 353 -384 353 -384 240.5 -271.5 c 132,-1,11
 128 -159 128 -159 128 0 c 132,-1,12
 128 159 128 159 240.5 271.5 c 132,-1,13
 353 384 353 384 512 384 c 6,14,-1
 576 384 l 5,15,-1
 768 384 l 5,16,-1
 896 384 l 5,17,-1
 896 256 l 5,18,-1
 896 -64 l 5,19,-1
 768 -64 l 5,20,-1
 768 256 l 5,21,-1
 576 256 l 5,0,-1
EndSplineSet
Validated: 1025
EndChar

StartChar: hbar
Encoding: 295 295 69
Width: 1024
VWidth: 1689
Flags: W
LayerCount: 2
Fore
SplineSet
448 64 m 5,0,-1
 576 64 l 5,1,-1
 576 -64 l 5,2,-1
 448 -64 l 5,3,-1
 448 64 l 5,0,-1
576 256 m 1,4,-1
 512 256 l 2,5,6
 406 256 406 256 331 181 c 128,-1,7
 256 106 256 106 256 0 c 128,-1,8
 256 -106 256 -106 331 -181 c 128,-1,9
 406 -256 406 -256 512 -256 c 2,10,-1
 576 -256 l 1,11,-1
 576 -384 l 1,12,-1
 512 -384 l 2,13,14
 353 -384 353 -384 240.5 -271.5 c 128,-1,15
 128 -159 128 -159 128 0 c 128,-1,16
 128 159 128 159 240.5 271.5 c 128,-1,17
 353 384 353 384 512 384 c 2,18,-1
 576 384 l 1,19,-1
 768 384 l 1,20,-1
 896 384 l 1,21,-1
 896 256 l 1,22,-1
 896 -64 l 1,23,-1
 768 -64 l 1,24,-1
 768 256 l 1,25,-1
 576 256 l 1,4,-1
EndSplineSet
Validated: 1025
EndChar

StartChar: Itilde
Encoding: 296 296 70
Width: 1024
VWidth: 1689
Flags: W
LayerCount: 2
Fore
SplineSet
448 256 m 1,0,-1
 256 256 l 1,1,-1
 256 -64 l 1,2,-1
 128 -64 l 1,3,-1
 128 256 l 1,4,-1
 128 384 l 1,5,-1
 256 384 l 1,6,-1
 448 384 l 1,7,-1
 512 384 l 2,8,9
 671 384 671 384 783.5 271.5 c 128,-1,10
 896 159 896 159 896 0 c 128,-1,11
 896 -159 896 -159 783.5 -271.5 c 128,-1,12
 671 -384 671 -384 512 -384 c 2,13,14
 512 -384 512 -384 448 -384 c 1,15,-1
 448 -256 l 1,16,-1
 512 -256 l 2,17,18
 618 -256 618 -256 693 -181 c 128,-1,19
 768 -106 768 -106 768 0 c 128,-1,20
 768 106 768 106 693 181 c 128,-1,21
 618 256 618 256 512 256 c 2,22,23
 512 256 512 256 448 256 c 1,0,-1
EndSplineSet
Validated: 1025
EndChar

StartChar: itilde
Encoding: 297 297 71
Width: 1024
VWidth: 1689
Flags: W
LayerCount: 2
Fore
SplineSet
448 64 m 5,0,-1
 576 64 l 5,1,-1
 576 -64 l 5,2,-1
 448 -64 l 5,3,-1
 448 64 l 5,0,-1
448 256 m 1,4,-1
 256 256 l 1,5,-1
 256 -64 l 1,6,-1
 128 -64 l 1,7,-1
 128 256 l 1,8,-1
 128 384 l 1,9,-1
 256 384 l 1,10,-1
 448 384 l 1,11,-1
 512 384 l 2,12,13
 671 384 671 384 783.5 271.5 c 128,-1,14
 896 159 896 159 896 0 c 128,-1,15
 896 -159 896 -159 783.5 -271.5 c 128,-1,16
 671 -384 671 -384 512 -384 c 2,17,18
 512 -384 512 -384 448 -384 c 1,19,-1
 448 -256 l 1,20,-1
 512 -256 l 2,21,22
 618 -256 618 -256 693 -181 c 128,-1,23
 768 -106 768 -106 768 0 c 128,-1,24
 768 106 768 106 693 181 c 128,-1,25
 618 256 618 256 512 256 c 2,26,27
 512 256 512 256 448 256 c 1,4,-1
EndSplineSet
Validated: 1025
EndChar

StartChar: Imacron
Encoding: 298 298 72
Width: 1024
VWidth: 1689
Flags: W
LayerCount: 2
Fore
SplineSet
256 -64 m 1,0,-1
 256 -256 l 1,1,-1
 576 -256 l 1,2,-1
 576 -384 l 1,3,-1
 256 -384 l 1,4,-1
 128 -384 l 1,5,-1
 128 -256 l 1,6,-1
 128 -64 l 1,7,-1
 128 0 l 2,8,9
 128 159 128 159 240.5 271.5 c 128,-1,10
 353 384 353 384 512 384 c 128,-1,11
 671 384 671 384 783.5 271.5 c 128,-1,12
 896 159 896 159 896 0 c 2,13,14
 896 0 896 0 896 -64 c 1,15,-1
 768 -64 l 1,16,-1
 768 0 l 2,17,18
 768 106 768 106 693 181 c 128,-1,19
 618 256 618 256 512 256 c 128,-1,20
 406 256 406 256 331 181 c 128,-1,21
 256 106 256 106 256 0 c 2,22,23
 256 0 256 0 256 -64 c 1,0,-1
EndSplineSet
Validated: 1025
EndChar

StartChar: imacron
Encoding: 299 299 73
Width: 1024
VWidth: 1689
Flags: W
LayerCount: 2
Fore
SplineSet
448 64 m 5,0,-1
 576 64 l 5,1,-1
 576 -64 l 5,2,-1
 448 -64 l 5,3,-1
 448 64 l 5,0,-1
256 -64 m 1,4,-1
 256 -256 l 1,5,-1
 576 -256 l 1,6,-1
 576 -384 l 1,7,-1
 256 -384 l 1,8,-1
 128 -384 l 1,9,-1
 128 -256 l 1,10,-1
 128 -64 l 1,11,-1
 128 0 l 2,12,13
 128 159 128 159 240.5 271.5 c 128,-1,14
 353 384 353 384 512 384 c 128,-1,15
 671 384 671 384 783.5 271.5 c 128,-1,16
 896 159 896 159 896 0 c 2,17,18
 896 0 896 0 896 -64 c 1,19,-1
 768 -64 l 1,20,-1
 768 0 l 2,21,22
 768 106 768 106 693 181 c 128,-1,23
 618 256 618 256 512 256 c 128,-1,24
 406 256 406 256 331 181 c 128,-1,25
 256 106 256 106 256 0 c 2,26,27
 256 0 256 0 256 -64 c 1,4,-1
EndSplineSet
Validated: 1025
EndChar

StartChar: Ibreve
Encoding: 300 300 74
Width: 1024
VWidth: 1689
Flags: W
LayerCount: 2
Fore
SplineSet
576 -256 m 1,0,-1
 768 -256 l 1,1,-1
 768 64 l 1,2,-1
 896 64 l 1,3,-1
 896 -256 l 1,4,-1
 896 -384 l 1,5,-1
 768 -384 l 1,6,-1
 576 -384 l 1,7,-1
 512 -384 l 2,8,9
 353 -384 353 -384 240.5 -271.5 c 128,-1,10
 128 -159 128 -159 128 0 c 128,-1,11
 128 159 128 159 240.5 271.5 c 128,-1,12
 353 384 353 384 512 384 c 2,13,14
 512 384 512 384 576 384 c 1,15,-1
 576 256 l 1,16,-1
 512 256 l 2,17,18
 406 256 406 256 331 181 c 128,-1,19
 256 106 256 106 256 0 c 128,-1,20
 256 -106 256 -106 331 -181 c 128,-1,21
 406 -256 406 -256 512 -256 c 2,22,23
 512 -256 512 -256 576 -256 c 1,0,-1
EndSplineSet
Validated: 1025
EndChar

StartChar: ibreve
Encoding: 301 301 75
Width: 1024
VWidth: 1689
Flags: W
LayerCount: 2
Fore
SplineSet
448 64 m 5,0,-1
 576 64 l 5,1,-1
 576 -64 l 5,2,-1
 448 -64 l 5,3,-1
 448 64 l 5,0,-1
576 -256 m 1,4,-1
 768 -256 l 1,5,-1
 768 64 l 1,6,-1
 896 64 l 1,7,-1
 896 -256 l 1,8,-1
 896 -384 l 1,9,-1
 768 -384 l 1,10,-1
 576 -384 l 1,11,-1
 512 -384 l 2,12,13
 353 -384 353 -384 240.5 -271.5 c 128,-1,14
 128 -159 128 -159 128 0 c 128,-1,15
 128 159 128 159 240.5 271.5 c 128,-1,16
 353 384 353 384 512 384 c 2,17,18
 512 384 512 384 576 384 c 1,19,-1
 576 256 l 1,20,-1
 512 256 l 2,21,22
 406 256 406 256 331 181 c 128,-1,23
 256 106 256 106 256 0 c 128,-1,24
 256 -106 256 -106 331 -181 c 128,-1,25
 406 -256 406 -256 512 -256 c 2,26,27
 512 -256 512 -256 576 -256 c 1,4,-1
EndSplineSet
Validated: 1025
EndChar

StartChar: Iogonek
Encoding: 302 302 76
Width: 1024
VWidth: 1689
Flags: W
LayerCount: 2
Fore
SplineSet
768 64 m 1,0,-1
 768 256 l 1,1,-1
 448 256 l 1,2,-1
 448 384 l 1,3,-1
 768 384 l 1,4,-1
 896 384 l 1,5,-1
 896 256 l 1,6,-1
 896 64 l 1,7,-1
 896 0 l 2,8,9
 896 -159 896 -159 783.5 -271.5 c 128,-1,10
 671 -384 671 -384 512 -384 c 128,-1,11
 353 -384 353 -384 240.5 -271.5 c 128,-1,12
 128 -159 128 -159 128 0 c 2,13,14
 128 0 128 0 128 64 c 1,15,-1
 256 64 l 1,16,-1
 256 0 l 2,17,18
 256 -106 256 -106 331 -181 c 128,-1,19
 406 -256 406 -256 512 -256 c 128,-1,20
 618 -256 618 -256 693 -181 c 128,-1,21
 768 -106 768 -106 768 0 c 2,22,23
 768 0 768 0 768 64 c 1,0,-1
EndSplineSet
Validated: 1025
EndChar

StartChar: iogonek
Encoding: 303 303 77
Width: 1024
VWidth: 1689
Flags: W
LayerCount: 2
Fore
SplineSet
448 64 m 5,0,-1
 576 64 l 5,1,-1
 576 -64 l 5,2,-1
 448 -64 l 5,3,-1
 448 64 l 5,0,-1
768 64 m 1,4,-1
 768 256 l 1,5,-1
 448 256 l 1,6,-1
 448 384 l 1,7,-1
 768 384 l 1,8,-1
 896 384 l 1,9,-1
 896 256 l 1,10,-1
 896 64 l 1,11,-1
 896 0 l 2,12,13
 896 -159 896 -159 783.5 -271.5 c 128,-1,14
 671 -384 671 -384 512 -384 c 128,-1,15
 353 -384 353 -384 240.5 -271.5 c 128,-1,16
 128 -159 128 -159 128 0 c 2,17,18
 128 0 128 0 128 64 c 1,19,-1
 256 64 l 1,20,-1
 256 0 l 2,21,22
 256 -106 256 -106 331 -181 c 128,-1,23
 406 -256 406 -256 512 -256 c 128,-1,24
 618 -256 618 -256 693 -181 c 128,-1,25
 768 -106 768 -106 768 0 c 2,26,27
 768 0 768 0 768 64 c 1,4,-1
EndSplineSet
Validated: 1025
EndChar

StartChar: Idotaccent
Encoding: 304 304 78
Width: 1024
VWidth: 1689
Flags: W
LayerCount: 2
Fore
SplineSet
447 -64 m 1,0,-1
 127 -64 l 1,1,-1
 127 64 l 1,2,-1
 447 64 l 1,3,-1
 447 248 l 1,4,5
 381 232 381 232 330 181 c 1,6,7
 330 181 330 181 239 272 c 1,8,9
 351 384 351 384 511 384 c 2,10,11
 511 384 511 384 575 384 c 1,12,-1
 575 256 l 1,13,-1
 575 64 l 1,14,-1
 895 64 l 1,15,-1
 896 -64 l 1,16,-1
 575 -64 l 1,17,-1
 575 -384 l 1,18,-1
 447 -385 l 1,19,-1
 447 -64 l 1,0,-1
EndSplineSet
Validated: 1
EndChar

StartChar: dotlessi
Encoding: 305 305 79
Width: 1024
VWidth: 1689
Flags: W
LayerCount: 2
Fore
SplineSet
448 64 m 1,0,-1
 448 384 l 1,1,-1
 576 384 l 1,2,-1
 576 64 l 1,3,-1
 760 64 l 1,4,5
 744 130 744 130 693 181 c 1,6,7
 693 181 693 181 784 272 c 1,8,9
 896 160 896 160 896 0 c 2,10,11
 896 0 896 0 896 -64 c 1,12,-1
 768 -64 l 1,13,-1
 576 -64 l 1,14,-1
 576 -384 l 1,15,-1
 448 -385 l 1,16,-1
 448 -64 l 1,17,-1
 128 -64 l 1,18,-1
 127 64 l 1,19,-1
 448 64 l 1,0,-1
EndSplineSet
Validated: 1
EndChar

StartChar: IJ
Encoding: 306 306 80
Width: 1024
VWidth: 1689
Flags: W
LayerCount: 2
Fore
SplineSet
576 63 m 1,0,-1
 896 63 l 1,1,-1
 896 -65 l 1,2,-1
 576 -65 l 1,3,-1
 576 -249 l 1,4,5
 642 -233 642 -233 693 -182 c 1,6,7
 693 -182 693 -182 784 -273 c 1,8,9
 672 -385 672 -385 512 -385 c 2,10,11
 512 -385 512 -385 448 -385 c 1,12,-1
 448 -257 l 1,13,-1
 448 -65 l 1,14,-1
 128 -65 l 1,15,-1
 127 63 l 1,16,-1
 448 63 l 1,17,-1
 448 383 l 1,18,-1
 576 384 l 1,19,-1
 576 63 l 1,0,-1
EndSplineSet
Validated: 1
EndChar

StartChar: ij
Encoding: 307 307 81
Width: 1024
VWidth: 1689
Flags: W
LayerCount: 2
Fore
SplineSet
575 -65 m 1,0,-1
 575 -385 l 1,1,-1
 447 -385 l 1,2,-1
 447 -65 l 1,3,-1
 263 -65 l 1,4,5
 279 -131 279 -131 330 -182 c 1,6,7
 330 -182 330 -182 239 -273 c 1,8,9
 127 -161 127 -161 127 -1 c 2,10,11
 127 -1 127 -1 127 63 c 1,12,-1
 255 63 l 1,13,-1
 447 63 l 1,14,-1
 447 383 l 1,15,-1
 575 384 l 1,16,-1
 575 63 l 1,17,-1
 895 63 l 1,18,-1
 896 -65 l 1,19,-1
 575 -65 l 1,0,-1
EndSplineSet
Validated: 1
EndChar

StartChar: Jcircumflex
Encoding: 308 308 82
Width: 1024
VWidth: 1689
Flags: W
LayerCount: 2
Fore
SplineSet
575 -64 m 1,0,-1
 575 -384 l 1,1,-1
 447 -385 l 1,2,-1
 447 -64 l 1,3,-1
 263 -64 l 1,4,5
 279 -130 279 -130 330 -181 c 1,6,7
 330 -181 330 -181 239 -272 c 1,8,9
 127 -160 127 -160 127 0 c 2,10,11
 127 0 127 0 127 64 c 1,12,-1
 255 64 l 1,13,-1
 447 64 l 1,14,-1
 447 248 l 1,15,16
 381 232 381 232 330 181 c 1,17,18
 330 181 330 181 239 272 c 1,19,20
 351 384 351 384 511 384 c 2,21,22
 511 384 511 384 575 384 c 1,23,-1
 575 256 l 1,24,-1
 575 64 l 1,25,-1
 895 64 l 1,26,-1
 896 -64 l 1,27,-1
 575 -64 l 1,0,-1
EndSplineSet
Validated: 1025
EndChar

StartChar: jcircumflex
Encoding: 309 309 83
Width: 1024
VWidth: 1689
Flags: W
LayerCount: 2
Fore
SplineSet
448 -64 m 1,0,-1
 128 -64 l 1,1,-1
 127 64 l 1,2,-1
 448 64 l 1,3,-1
 448 248 l 1,4,5
 382 232 382 232 331 181 c 1,6,7
 331 181 331 181 240 272 c 1,8,9
 352 384 352 384 512 384 c 2,10,11
 512 384 512 384 576 384 c 1,12,-1
 576 256 l 1,13,-1
 576 64 l 1,14,-1
 760 64 l 1,15,16
 744 130 744 130 693 181 c 1,17,18
 693 181 693 181 784 272 c 1,19,20
 896 160 896 160 896 0 c 2,21,22
 896 0 896 0 896 -64 c 1,23,-1
 768 -64 l 1,24,-1
 576 -64 l 1,25,-1
 576 -384 l 1,26,-1
 448 -385 l 1,27,-1
 448 -64 l 1,0,-1
EndSplineSet
Validated: 1025
EndChar

StartChar: uni0136
Encoding: 310 310 84
Width: 1024
VWidth: 1689
Flags: W
LayerCount: 2
Fore
SplineSet
448 63 m 1,0,-1
 448 383 l 1,1,-1
 576 384 l 1,2,-1
 576 63 l 1,3,-1
 760 63 l 1,4,5
 744 129 744 129 693 180 c 1,6,7
 693 180 693 180 784 271 c 1,8,9
 896 159 896 159 896 -1 c 2,10,11
 896 -1 896 -1 896 -65 c 1,12,-1
 768 -65 l 1,13,-1
 576 -65 l 1,14,-1
 576 -249 l 1,15,16
 642 -233 642 -233 693 -182 c 1,17,18
 693 -182 693 -182 784 -273 c 1,19,20
 672 -385 672 -385 512 -385 c 2,21,22
 512 -385 512 -385 448 -385 c 1,23,-1
 448 -257 l 1,24,-1
 448 -65 l 1,25,-1
 128 -65 l 1,26,-1
 127 63 l 1,27,-1
 448 63 l 1,0,-1
EndSplineSet
Validated: 1025
EndChar

StartChar: uni0137
Encoding: 311 311 85
Width: 1024
VWidth: 1689
Flags: W
LayerCount: 2
Fore
SplineSet
575 63 m 1,0,-1
 895 63 l 1,1,-1
 896 -65 l 1,2,-1
 575 -65 l 1,3,-1
 575 -249 l 1,4,5
 641 -233 641 -233 692 -182 c 1,6,7
 692 -182 692 -182 783 -273 c 1,8,9
 671 -385 671 -385 511 -385 c 2,10,11
 511 -385 511 -385 447 -385 c 1,12,-1
 447 -257 l 1,13,-1
 447 -65 l 1,14,-1
 263 -65 l 1,15,16
 279 -131 279 -131 330 -182 c 1,17,18
 330 -182 330 -182 239 -273 c 1,19,20
 127 -161 127 -161 127 -1 c 2,21,22
 127 -1 127 -1 127 63 c 1,23,-1
 255 63 l 1,24,-1
 447 63 l 1,25,-1
 447 383 l 1,26,-1
 575 384 l 1,27,-1
 575 63 l 1,0,-1
EndSplineSet
Validated: 1025
EndChar

StartChar: kgreenlandic
Encoding: 312 312 86
Width: 1024
VWidth: 1689
Flags: W
LayerCount: 2
Fore
SplineSet
575 64 m 1,0,-1
 895 64 l 1,1,-1
 896 -64 l 1,2,-1
 575 -64 l 1,3,-1
 575 -248 l 1,4,5
 641 -232 641 -232 692 -181 c 1,6,7
 692 -181 692 -181 783 -272 c 1,8,9
 671 -384 671 -384 511 -384 c 2,10,11
 511 -384 511 -384 447 -384 c 1,12,-1
 447 -256 l 1,13,-1
 447 -64 l 1,14,-1
 263 -64 l 1,15,16
 279 -130 279 -130 330 -181 c 1,17,18
 330 -181 330 -181 239 -272 c 1,19,20
 127 -160 127 -160 127 0 c 2,21,22
 127 0 127 0 127 64 c 1,23,-1
 255 64 l 1,24,-1
 447 64 l 1,25,-1
 447 248 l 1,26,27
 381 232 381 232 330 181 c 1,28,29
 330 181 330 181 239 272 c 1,30,31
 351 384 351 384 511 384 c 2,32,33
 511 384 511 384 575 384 c 1,34,-1
 575 256 l 1,35,-1
 575 64 l 1,0,-1
EndSplineSet
Validated: 1025
EndChar

StartChar: Lacute
Encoding: 313 313 87
Width: 1024
VWidth: 1689
Flags: W
LayerCount: 2
Fore
SplineSet
576 -64 m 1,0,-1
 576 -384 l 1,1,-1
 448 -384 l 1,2,-1
 448 -64 l 1,3,-1
 264 -64 l 1,4,5
 280 -130 280 -130 332 -180 c 1,6,7
 332 -180 332 -180 240 -272 c 1,8,9
 128 -160 128 -160 128 0 c 2,10,11
 128 0 128 0 128 64 c 1,12,-1
 256 64 l 1,13,-1
 448 64 l 1,14,-1
 448 248 l 1,15,16
 382 232 382 232 332 182 c 1,17,18
 332 182 332 182 240 272 c 1,19,20
 352 384 352 384 512 384 c 2,21,22
 512 384 512 384 576 384 c 1,23,-1
 576 256 l 1,24,-1
 576 64 l 1,25,-1
 760 64 l 1,26,27
 744 130 744 130 694 182 c 1,28,29
 694 182 694 182 784 272 c 1,30,31
 896 160 896 160 896 0 c 2,32,33
 896 0 896 0 896 -64 c 1,34,-1
 768 -64 l 1,35,-1
 576 -64 l 1,0,-1
EndSplineSet
Validated: 1025
EndChar

StartChar: lacute
Encoding: 314 314 88
Width: 1024
VWidth: 1689
Flags: W
LayerCount: 2
Fore
SplineSet
448 -64 m 1,0,-1
 128 -64 l 1,1,-1
 128 64 l 1,2,-1
 448 64 l 1,3,-1
 448 248 l 1,4,5
 382 232 382 232 332 180 c 1,6,7
 332 180 332 180 240 272 c 1,8,9
 352 384 352 384 512 384 c 2,10,11
 512 384 512 384 576 384 c 1,12,-1
 576 256 l 1,13,-1
 576 64 l 1,14,-1
 760 64 l 1,15,16
 744 130 744 130 694 180 c 1,17,18
 694 180 694 180 784 272 c 1,19,20
 896 160 896 160 896 0 c 2,21,22
 896 0 896 0 896 -64 c 1,23,-1
 768 -64 l 1,24,-1
 576 -64 l 1,25,-1
 576 -248 l 1,26,27
 642 -232 642 -232 694 -182 c 1,28,29
 694 -182 694 -182 784 -272 c 1,30,31
 672 -384 672 -384 512 -384 c 2,32,33
 512 -384 512 -384 448 -384 c 1,34,-1
 448 -256 l 1,35,-1
 448 -64 l 1,0,-1
EndSplineSet
Validated: 1025
EndChar

StartChar: uni013B
Encoding: 315 315 89
Width: 1024
VWidth: 1689
Flags: W
LayerCount: 2
Fore
SplineSet
448 64 m 1,0,-1
 448 384 l 1,1,-1
 576 384 l 1,2,-1
 576 64 l 1,3,-1
 760 64 l 1,4,5
 744 130 744 130 692 180 c 1,6,7
 692 180 692 180 784 272 c 1,8,9
 896 160 896 160 896 0 c 2,10,11
 896 0 896 0 896 -64 c 1,12,-1
 768 -64 l 1,13,-1
 576 -64 l 1,14,-1
 576 -248 l 1,15,16
 642 -232 642 -232 692 -182 c 1,17,18
 692 -182 692 -182 784 -272 c 1,19,20
 672 -384 672 -384 512 -384 c 2,21,22
 512 -384 512 -384 448 -384 c 1,23,-1
 448 -256 l 1,24,-1
 448 -64 l 1,25,-1
 264 -64 l 1,26,27
 280 -130 280 -130 330 -182 c 1,28,29
 330 -182 330 -182 240 -272 c 1,30,31
 128 -160 128 -160 128 0 c 2,32,33
 128 0 128 0 128 64 c 1,34,-1
 256 64 l 1,35,-1
 448 64 l 1,0,-1
EndSplineSet
Validated: 1025
EndChar

StartChar: uni013C
Encoding: 316 316 90
Width: 1024
VWidth: 1689
Flags: W
LayerCount: 2
Fore
SplineSet
447 64 m 1,0,-1
 447 384 l 1,1,-1
 575 384 l 1,2,-1
 575 64 l 1,3,-1
 895 64 l 1,4,-1
 896 -64 l 1,5,-1
 575 -64 l 1,6,-1
 575 -384 l 1,7,-1
 447 -385 l 1,8,-1
 447 -64 l 1,9,-1
 127 -64 l 1,10,-1
 127 64 l 1,11,-1
 447 64 l 1,0,-1
EndSplineSet
Validated: 1
EndChar

StartChar: Lcaron
Encoding: 317 317 91
Width: 1024
VWidth: 1689
Flags: W
LayerCount: 2
Fore
SplineSet
448 -64 m 1,0,-1
 128 -64 l 1,1,-1
 128 64 l 1,2,-1
 448 64 l 1,3,-1
 448 248 l 1,4,5
 382 232 382 232 331 181 c 1,6,7
 331 181 331 181 240 272 c 1,8,9
 352 384 352 384 512 384 c 2,10,11
 512 384 512 384 576 384 c 1,12,-1
 576 256 l 1,13,-1
 576 64 l 1,14,-1
 896 64 l 1,15,-1
 896 -64 l 1,16,-1
 576 -64 l 1,17,-1
 576 -248 l 1,18,19
 642 -232 642 -232 693 -181 c 1,20,21
 693 -181 693 -181 784 -272 c 1,22,23
 672 -384 672 -384 512 -384 c 2,24,25
 512 -384 512 -384 448 -384 c 1,26,-1
 448 -256 l 1,27,-1
 448 -64 l 1,0,-1
EndSplineSet
Validated: 1025
EndChar

StartChar: lcaron
Encoding: 318 318 92
Width: 1024
VWidth: 1689
Flags: W
LayerCount: 2
Fore
SplineSet
448 64 m 1,0,-1
 448 384 l 1,1,-1
 576 384 l 1,2,-1
 576 64 l 1,3,-1
 760 64 l 1,4,5
 744 130 744 130 693 181 c 1,6,7
 693 181 693 181 784 272 c 1,8,9
 896 160 896 160 896 0 c 2,10,11
 896 0 896 0 896 -64 c 1,12,-1
 768 -64 l 1,13,-1
 576 -64 l 1,14,-1
 576 -384 l 1,15,-1
 448 -384 l 1,16,-1
 448 -64 l 1,17,-1
 264 -64 l 1,18,19
 280 -130 280 -130 331 -181 c 1,20,21
 331 -181 331 -181 240 -272 c 1,22,23
 128 -160 128 -160 128 0 c 2,24,25
 128 0 128 0 128 64 c 1,26,-1
 256 64 l 1,27,-1
 448 64 l 1,0,-1
EndSplineSet
Validated: 1025
EndChar

StartChar: Ldot
Encoding: 319 319 93
Width: 1024
VWidth: 1689
Flags: W
LayerCount: 2
Fore
SplineSet
128 0 m 2,0,1
 128 0 128 0 128 64 c 1,2,-1
 256 64 l 1,3,-1
 448 64 l 1,4,-1
 448 248 l 1,5,6
 382 232 382 232 331 181 c 1,7,8
 331 181 331 181 240 272 c 1,9,10
 352 384 352 384 512 384 c 2,11,12
 512 384 512 384 576 384 c 1,13,-1
 576 256 l 1,14,-1
 576 64 l 1,15,-1
 760 64 l 1,16,17
 744 130 744 130 693 181 c 1,18,19
 693 181 693 181 784 272 c 1,20,21
 896 160 896 160 896 0 c 2,22,23
 896 0 896 0 896 -64 c 1,24,-1
 768 -64 l 1,25,-1
 576 -64 l 1,26,-1
 576 -248 l 1,27,28
 642 -232 642 -232 693 -181 c 1,29,30
 693 -181 693 -181 784 -272 c 1,31,32
 672 -384 672 -384 512 -384 c 2,33,34
 512 -384 512 -384 448 -384 c 1,35,-1
 448 -256 l 1,36,-1
 448 -64 l 1,37,-1
 264 -64 l 1,38,39
 280 -130 280 -130 331 -181 c 1,40,41
 331 -181 331 -181 240 -272 c 1,42,43
 128 -160 128 -160 128 0 c 2,0,1
EndSplineSet
Validated: 1025
EndChar

StartChar: at
Encoding: 64 64 94
Width: 1024
VWidth: 1689
Flags: W
LayerCount: 2
Fore
SplineSet
576 64 m 5,0,-1
 768 64 l 5,1,-1
 896 64 l 5,2,-1
 896 0 l 6,3,4
 896 -160 896 -160 784 -272 c 5,5,-1
 694 -182 l 5,6,7
 744 -130 744 -130 760 -64 c 5,8,-1
 576 -64 l 5,9,-1
 576 -256 l 5,10,-1
 576 -384 l 5,11,-1
 512 -384 l 6,12,13
 352 -384 352 -384 240 -272 c 5,14,-1
 332 -182 l 5,15,16
 382 -232 382 -232 448 -248 c 5,17,-1
 448 -64 l 5,18,-1
 256 -64 l 5,19,-1
 128 -64 l 5,20,-1
 128 0 l 6,21,22
 128 160 128 160 240 272 c 5,23,-1
 332 180 l 5,24,25
 280 130 280 130 264 64 c 5,26,-1
 448 64 l 5,27,-1
 448 384 l 5,28,-1
 576 384 l 5,29,-1
 576 64 l 5,0,-1
EndSplineSet
Validated: 1025
EndChar

StartChar: A
Encoding: 65 65 95
Width: 1024
VWidth: 1689
Flags: W
LayerCount: 2
Fore
SplineSet
256 -64 m 1,0,-1
 256 -384 l 1,1,-1
 128 -384 l 1,2,-1
 128 -64 l 1,3,-1
 128 0 l 2,4,5
 128 159 128 159 240.5 271.5 c 128,-1,6
 353 384 353 384 512 384 c 128,-1,7
 671 384 671 384 783.5 271.5 c 128,-1,8
 896 159 896 159 896 0 c 2,9,10
 896 0 896 0 896 -64 c 1,11,-1
 768 -64 l 1,12,-1
 768 0 l 2,13,14
 768 106 768 106 693 181 c 128,-1,15
 618 256 618 256 512 256 c 128,-1,16
 406 256 406 256 331 181 c 128,-1,17
 256 106 256 106 256 0 c 2,18,19
 256 0 256 0 256 -64 c 1,0,-1
EndSplineSet
Validated: 1
EndChar

StartChar: B
Encoding: 66 66 96
Width: 1024
VWidth: 1689
Flags: W
LayerCount: 2
Fore
SplineSet
448 64 m 5,0,-1
 576 64 l 5,1,-1
 576 -64 l 5,2,-1
 448 -64 l 5,3,-1
 448 64 l 5,0,-1
256 -64 m 1,4,-1
 256 -384 l 1,5,-1
 128 -384 l 1,6,-1
 128 -64 l 1,7,-1
 128 0 l 2,8,9
 128 159 128 159 240.5 271.5 c 128,-1,10
 353 384 353 384 512 384 c 128,-1,11
 671 384 671 384 783.5 271.5 c 128,-1,12
 896 159 896 159 896 0 c 2,13,14
 896 0 896 0 896 -64 c 1,15,-1
 768 -64 l 1,16,-1
 768 0 l 2,17,18
 768 106 768 106 693 181 c 128,-1,19
 618 256 618 256 512 256 c 128,-1,20
 406 256 406 256 331 181 c 128,-1,21
 256 106 256 106 256 0 c 2,22,23
 256 0 256 0 256 -64 c 1,4,-1
EndSplineSet
Validated: 1025
EndChar

StartChar: D
Encoding: 68 68 97
Width: 1024
VWidth: 1689
Flags: W
LayerCount: 2
Fore
SplineSet
448 64 m 5,0,-1
 576 64 l 5,1,-1
 576 -64 l 5,2,-1
 448 -64 l 5,3,-1
 448 64 l 5,0,-1
576 -256 m 1,4,-1
 896 -256 l 1,5,-1
 896 -384 l 1,6,-1
 576 -384 l 1,7,-1
 512 -384 l 2,8,9
 353 -384 353 -384 240.5 -271.5 c 128,-1,10
 128 -159 128 -159 128 0 c 128,-1,11
 128 159 128 159 240.5 271.5 c 128,-1,12
 353 384 353 384 512 384 c 2,13,14
 512 384 512 384 576 384 c 1,15,-1
 576 256 l 1,16,-1
 512 256 l 2,17,18
 406 256 406 256 331 181 c 128,-1,19
 256 106 256 106 256 0 c 128,-1,20
 256 -106 256 -106 331 -181 c 128,-1,21
 406 -256 406 -256 512 -256 c 2,22,23
 512 -256 512 -256 576 -256 c 1,4,-1
EndSplineSet
Validated: 1025
EndChar

StartChar: E
Encoding: 69 69 98
Width: 1024
VWidth: 1689
Flags: W
LayerCount: 2
Fore
SplineSet
768 64 m 1,0,-1
 768 384 l 1,1,-1
 896 384 l 1,2,-1
 896 64 l 1,3,-1
 896 0 l 2,4,5
 896 -159 896 -159 783.5 -271.5 c 128,-1,6
 671 -384 671 -384 512 -384 c 128,-1,7
 353 -384 353 -384 240.5 -271.5 c 128,-1,8
 128 -159 128 -159 128 0 c 2,9,10
 128 0 128 0 128 64 c 1,11,-1
 256 64 l 1,12,-1
 256 0 l 2,13,14
 256 -106 256 -106 331 -181 c 128,-1,15
 406 -256 406 -256 512 -256 c 128,-1,16
 618 -256 618 -256 693 -181 c 128,-1,17
 768 -106 768 -106 768 0 c 2,18,19
 768 0 768 0 768 64 c 1,0,-1
EndSplineSet
Validated: 1
EndChar

StartChar: F
Encoding: 70 70 99
Width: 1024
VWidth: 1689
Flags: W
LayerCount: 2
Fore
SplineSet
448 64 m 5,0,-1
 576 64 l 5,1,-1
 576 -64 l 5,2,-1
 448 -64 l 5,3,-1
 448 64 l 5,0,-1
768 64 m 1,4,-1
 768 384 l 1,5,-1
 896 384 l 1,6,-1
 896 64 l 1,7,-1
 896 0 l 2,8,9
 896 -159 896 -159 783.5 -271.5 c 128,-1,10
 671 -384 671 -384 512 -384 c 128,-1,11
 353 -384 353 -384 240.5 -271.5 c 128,-1,12
 128 -159 128 -159 128 0 c 2,13,14
 128 0 128 0 128 64 c 1,15,-1
 256 64 l 1,16,-1
 256 0 l 2,17,18
 256 -106 256 -106 331 -181 c 128,-1,19
 406 -256 406 -256 512 -256 c 128,-1,20
 618 -256 618 -256 693 -181 c 128,-1,21
 768 -106 768 -106 768 0 c 2,22,23
 768 0 768 0 768 64 c 1,4,-1
EndSplineSet
Validated: 1025
EndChar

StartChar: H
Encoding: 72 72 100
Width: 1024
VWidth: 1689
Flags: W
LayerCount: 2
Fore
SplineSet
448 64 m 5,0,-1
 576 64 l 5,1,-1
 576 -64 l 5,2,-1
 448 -64 l 5,3,-1
 448 64 l 5,0,-1
256 64 m 1,4,-1
 256 0 l 2,5,6
 256 -106 256 -106 331 -181 c 128,-1,7
 406 -256 406 -256 512 -256 c 128,-1,8
 618 -256 618 -256 693 -181 c 128,-1,9
 768 -106 768 -106 768 0 c 2,10,-1
 768 64 l 1,11,-1
 896 64 l 1,12,-1
 896 0 l 2,13,14
 896 -159 896 -159 783.5 -271.5 c 128,-1,15
 671 -384 671 -384 512 -384 c 128,-1,16
 353 -384 353 -384 240.5 -271.5 c 128,-1,17
 128 -159 128 -159 128 0 c 2,18,-1
 128 64 l 1,19,-1
 128 256 l 1,20,-1
 128 384 l 1,21,-1
 256 384 l 1,22,-1
 576 384 l 1,23,-1
 576 256 l 1,24,-1
 256 256 l 1,25,-1
 256 64 l 1,4,-1
EndSplineSet
Validated: 1025
EndChar

StartChar: I
Encoding: 73 73 101
Width: 1024
VWidth: 1689
Flags: W
LayerCount: 2
Fore
SplineSet
448 -256 m 5,0,-1
 512 -256 l 6,1,2
 618 -256 618 -256 693 -181 c 132,-1,3
 768 -106 768 -106 768 0 c 132,-1,4
 768 106 768 106 693 181 c 132,-1,5
 618 256 618 256 512 256 c 6,6,-1
 448 256 l 5,7,-1
 448 384 l 5,8,-1
 512 384 l 6,9,10
 671 384 671 384 783.5 271.5 c 132,-1,11
 896 159 896 159 896 0 c 132,-1,12
 896 -159 896 -159 783.5 -271.5 c 132,-1,13
 671 -384 671 -384 512 -384 c 6,14,-1
 448 -384 l 5,15,-1
 256 -384 l 5,16,-1
 128 -384 l 5,17,-1
 128 -256 l 5,18,-1
 128 64 l 5,19,-1
 256 64 l 5,20,-1
 256 -256 l 5,21,-1
 448 -256 l 5,0,-1
EndSplineSet
Validated: 1025
EndChar

StartChar: J
Encoding: 74 74 102
Width: 1024
VWidth: 1689
Flags: W
LayerCount: 2
Fore
SplineSet
448 64 m 5,0,-1
 576 64 l 5,1,-1
 576 -64 l 5,2,-1
 448 -64 l 5,3,-1
 448 64 l 5,0,-1
448 -256 m 1,4,-1
 512 -256 l 2,5,6
 618 -256 618 -256 693 -181 c 128,-1,7
 768 -106 768 -106 768 0 c 128,-1,8
 768 106 768 106 693 181 c 128,-1,9
 618 256 618 256 512 256 c 2,10,-1
 448 256 l 1,11,-1
 448 384 l 1,12,-1
 512 384 l 2,13,14
 671 384 671 384 783.5 271.5 c 128,-1,15
 896 159 896 159 896 0 c 128,-1,16
 896 -159 896 -159 783.5 -271.5 c 128,-1,17
 671 -384 671 -384 512 -384 c 2,18,-1
 448 -384 l 1,19,-1
 256 -384 l 1,20,-1
 128 -384 l 1,21,-1
 128 -256 l 1,22,-1
 128 64 l 1,23,-1
 256 64 l 1,24,-1
 256 -256 l 1,25,-1
 448 -256 l 1,4,-1
EndSplineSet
Validated: 1025
EndChar

StartChar: K
Encoding: 75 75 103
Width: 1024
VWidth: 1689
Flags: W
LayerCount: 2
Fore
SplineSet
768 -64 m 5,0,-1
 768 0 l 6,1,2
 768 106 768 106 693 181 c 132,-1,3
 618 256 618 256 512 256 c 132,-1,4
 406 256 406 256 331 181 c 132,-1,5
 256 106 256 106 256 0 c 6,6,-1
 256 -64 l 5,7,-1
 128 -64 l 5,8,-1
 128 0 l 6,9,10
 128 159 128 159 240.5 271.5 c 132,-1,11
 353 384 353 384 512 384 c 132,-1,12
 671 384 671 384 783.5 271.5 c 132,-1,13
 896 159 896 159 896 0 c 6,14,-1
 896 -64 l 5,15,-1
 896 -256 l 5,16,-1
 896 -384 l 5,17,-1
 768 -384 l 5,18,-1
 448 -384 l 5,19,-1
 448 -256 l 5,20,-1
 768 -256 l 5,21,-1
 768 -64 l 5,0,-1
EndSplineSet
Validated: 1025
EndChar

StartChar: L
Encoding: 76 76 104
Width: 1024
VWidth: 1689
Flags: W
LayerCount: 2
Fore
SplineSet
448 64 m 5,0,-1
 576 64 l 5,1,-1
 576 -64 l 5,2,-1
 448 -64 l 5,3,-1
 448 64 l 5,0,-1
768 -64 m 1,4,-1
 768 0 l 2,5,6
 768 106 768 106 693 181 c 128,-1,7
 618 256 618 256 512 256 c 128,-1,8
 406 256 406 256 331 181 c 128,-1,9
 256 106 256 106 256 0 c 2,10,-1
 256 -64 l 1,11,-1
 128 -64 l 1,12,-1
 128 0 l 2,13,14
 128 159 128 159 240.5 271.5 c 128,-1,15
 353 384 353 384 512 384 c 128,-1,16
 671 384 671 384 783.5 271.5 c 128,-1,17
 896 159 896 159 896 0 c 2,18,-1
 896 -64 l 1,19,-1
 896 -256 l 1,20,-1
 896 -384 l 1,21,-1
 768 -384 l 1,22,-1
 448 -384 l 1,23,-1
 448 -256 l 1,24,-1
 768 -256 l 1,25,-1
 768 -64 l 1,4,-1
EndSplineSet
Validated: 1025
EndChar

StartChar: M
Encoding: 77 77 105
Width: 1024
VWidth: 1689
Flags: W
LayerCount: 2
Fore
SplineSet
576 256 m 5,0,-1
 512 256 l 6,1,2
 406 256 406 256 331 181 c 132,-1,3
 256 106 256 106 256 0 c 132,-1,4
 256 -106 256 -106 331 -181 c 132,-1,5
 406 -256 406 -256 512 -256 c 6,6,-1
 576 -256 l 5,7,-1
 576 -384 l 5,8,-1
 512 -384 l 6,9,10
 353 -384 353 -384 240.5 -271.5 c 132,-1,11
 128 -159 128 -159 128 0 c 132,-1,12
 128 159 128 159 240.5 271.5 c 132,-1,13
 353 384 353 384 512 384 c 6,14,-1
 576 384 l 5,15,-1
 768 384 l 5,16,-1
 896 384 l 5,17,-1
 896 256 l 5,18,-1
 896 -64 l 5,19,-1
 768 -64 l 5,20,-1
 768 256 l 5,21,-1
 576 256 l 5,0,-1
EndSplineSet
Validated: 1025
EndChar

StartChar: N
Encoding: 78 78 106
Width: 1024
VWidth: 1689
Flags: W
LayerCount: 2
Fore
SplineSet
448 64 m 5,0,-1
 576 64 l 5,1,-1
 576 -64 l 5,2,-1
 448 -64 l 5,3,-1
 448 64 l 5,0,-1
576 256 m 1,4,-1
 512 256 l 2,5,6
 406 256 406 256 331 181 c 128,-1,7
 256 106 256 106 256 0 c 128,-1,8
 256 -106 256 -106 331 -181 c 128,-1,9
 406 -256 406 -256 512 -256 c 2,10,-1
 576 -256 l 1,11,-1
 576 -384 l 1,12,-1
 512 -384 l 2,13,14
 353 -384 353 -384 240.5 -271.5 c 128,-1,15
 128 -159 128 -159 128 0 c 128,-1,16
 128 159 128 159 240.5 271.5 c 128,-1,17
 353 384 353 384 512 384 c 2,18,-1
 576 384 l 1,19,-1
 768 384 l 1,20,-1
 896 384 l 1,21,-1
 896 256 l 1,22,-1
 896 -64 l 1,23,-1
 768 -64 l 1,24,-1
 768 256 l 1,25,-1
 576 256 l 1,4,-1
EndSplineSet
Validated: 1025
EndChar

StartChar: O
Encoding: 79 79 107
Width: 1024
VWidth: 1689
Flags: W
LayerCount: 2
Fore
SplineSet
448 256 m 1,0,-1
 256 256 l 1,1,-1
 256 -64 l 1,2,-1
 128 -64 l 1,3,-1
 128 256 l 1,4,-1
 128 384 l 1,5,-1
 256 384 l 1,6,-1
 448 384 l 1,7,-1
 512 384 l 2,8,9
 671 384 671 384 783.5 271.5 c 128,-1,10
 896 159 896 159 896 0 c 128,-1,11
 896 -159 896 -159 783.5 -271.5 c 128,-1,12
 671 -384 671 -384 512 -384 c 2,13,14
 512 -384 512 -384 448 -384 c 1,15,-1
 448 -256 l 1,16,-1
 512 -256 l 2,17,18
 618 -256 618 -256 693 -181 c 128,-1,19
 768 -106 768 -106 768 0 c 128,-1,20
 768 106 768 106 693 181 c 128,-1,21
 618 256 618 256 512 256 c 2,22,23
 512 256 512 256 448 256 c 1,0,-1
EndSplineSet
Validated: 1025
EndChar

StartChar: P
Encoding: 80 80 108
Width: 1024
VWidth: 1689
Flags: W
LayerCount: 2
Fore
SplineSet
448 64 m 5,0,-1
 576 64 l 5,1,-1
 576 -64 l 5,2,-1
 448 -64 l 5,3,-1
 448 64 l 5,0,-1
448 256 m 1,4,-1
 256 256 l 1,5,-1
 256 -64 l 1,6,-1
 128 -64 l 1,7,-1
 128 256 l 1,8,-1
 128 384 l 1,9,-1
 256 384 l 1,10,-1
 448 384 l 1,11,-1
 512 384 l 2,12,13
 671 384 671 384 783.5 271.5 c 128,-1,14
 896 159 896 159 896 0 c 128,-1,15
 896 -159 896 -159 783.5 -271.5 c 128,-1,16
 671 -384 671 -384 512 -384 c 2,17,18
 512 -384 512 -384 448 -384 c 1,19,-1
 448 -256 l 1,20,-1
 512 -256 l 2,21,22
 618 -256 618 -256 693 -181 c 128,-1,23
 768 -106 768 -106 768 0 c 128,-1,24
 768 106 768 106 693 181 c 128,-1,25
 618 256 618 256 512 256 c 2,26,27
 512 256 512 256 448 256 c 1,4,-1
EndSplineSet
Validated: 1025
EndChar

StartChar: R
Encoding: 82 82 109
Width: 1024
VWidth: 1689
Flags: W
LayerCount: 2
Fore
SplineSet
448 64 m 5,0,-1
 576 64 l 5,1,-1
 576 -64 l 5,2,-1
 448 -64 l 5,3,-1
 448 64 l 5,0,-1
256 -64 m 1,4,-1
 256 -256 l 1,5,-1
 576 -256 l 1,6,-1
 576 -384 l 1,7,-1
 256 -384 l 1,8,-1
 128 -384 l 1,9,-1
 128 -256 l 1,10,-1
 128 -64 l 1,11,-1
 128 0 l 2,12,13
 128 159 128 159 240.5 271.5 c 128,-1,14
 353 384 353 384 512 384 c 128,-1,15
 671 384 671 384 783.5 271.5 c 128,-1,16
 896 159 896 159 896 0 c 2,17,18
 896 0 896 0 896 -64 c 1,19,-1
 768 -64 l 1,20,-1
 768 0 l 2,21,22
 768 106 768 106 693 181 c 128,-1,23
 618 256 618 256 512 256 c 128,-1,24
 406 256 406 256 331 181 c 128,-1,25
 256 106 256 106 256 0 c 2,26,27
 256 0 256 0 256 -64 c 1,4,-1
EndSplineSet
Validated: 1025
EndChar

StartChar: S
Encoding: 83 83 110
Width: 1024
VWidth: 1689
Flags: W
LayerCount: 2
Fore
SplineSet
576 -256 m 1,0,-1
 768 -256 l 1,1,-1
 768 64 l 1,2,-1
 896 64 l 1,3,-1
 896 -256 l 1,4,-1
 896 -384 l 1,5,-1
 768 -384 l 1,6,-1
 576 -384 l 1,7,-1
 512 -384 l 2,8,9
 353 -384 353 -384 240.5 -271.5 c 128,-1,10
 128 -159 128 -159 128 0 c 128,-1,11
 128 159 128 159 240.5 271.5 c 128,-1,12
 353 384 353 384 512 384 c 2,13,14
 512 384 512 384 576 384 c 1,15,-1
 576 256 l 1,16,-1
 512 256 l 2,17,18
 406 256 406 256 331 181 c 128,-1,19
 256 106 256 106 256 0 c 128,-1,20
 256 -106 256 -106 331 -181 c 128,-1,21
 406 -256 406 -256 512 -256 c 2,22,23
 512 -256 512 -256 576 -256 c 1,0,-1
EndSplineSet
Validated: 1025
EndChar

StartChar: T
Encoding: 84 84 111
Width: 1024
VWidth: 1689
Flags: W
LayerCount: 2
Fore
SplineSet
448 64 m 5,0,-1
 576 64 l 5,1,-1
 576 -64 l 5,2,-1
 448 -64 l 5,3,-1
 448 64 l 5,0,-1
576 -256 m 1,4,-1
 768 -256 l 1,5,-1
 768 64 l 1,6,-1
 896 64 l 1,7,-1
 896 -256 l 1,8,-1
 896 -384 l 1,9,-1
 768 -384 l 1,10,-1
 576 -384 l 1,11,-1
 512 -384 l 2,12,13
 353 -384 353 -384 240.5 -271.5 c 128,-1,14
 128 -159 128 -159 128 0 c 128,-1,15
 128 159 128 159 240.5 271.5 c 128,-1,16
 353 384 353 384 512 384 c 2,17,18
 512 384 512 384 576 384 c 1,19,-1
 576 256 l 1,20,-1
 512 256 l 2,21,22
 406 256 406 256 331 181 c 128,-1,23
 256 106 256 106 256 0 c 128,-1,24
 256 -106 256 -106 331 -181 c 128,-1,25
 406 -256 406 -256 512 -256 c 2,26,27
 512 -256 512 -256 576 -256 c 1,4,-1
EndSplineSet
Validated: 1025
EndChar

StartChar: U
Encoding: 85 85 112
Width: 1024
VWidth: 1689
Flags: W
LayerCount: 2
Fore
SplineSet
768 64 m 1,0,-1
 768 256 l 1,1,-1
 448 256 l 1,2,-1
 448 384 l 1,3,-1
 768 384 l 1,4,-1
 896 384 l 1,5,-1
 896 256 l 1,6,-1
 896 64 l 1,7,-1
 896 0 l 2,8,9
 896 -159 896 -159 783.5 -271.5 c 128,-1,10
 671 -384 671 -384 512 -384 c 128,-1,11
 353 -384 353 -384 240.5 -271.5 c 128,-1,12
 128 -159 128 -159 128 0 c 2,13,14
 128 0 128 0 128 64 c 1,15,-1
 256 64 l 1,16,-1
 256 0 l 2,17,18
 256 -106 256 -106 331 -181 c 128,-1,19
 406 -256 406 -256 512 -256 c 128,-1,20
 618 -256 618 -256 693 -181 c 128,-1,21
 768 -106 768 -106 768 0 c 2,22,23
 768 0 768 0 768 64 c 1,0,-1
EndSplineSet
Validated: 1025
EndChar

StartChar: V
Encoding: 86 86 113
Width: 1024
VWidth: 1689
Flags: W
LayerCount: 2
Fore
SplineSet
448 64 m 5,0,-1
 576 64 l 5,1,-1
 576 -64 l 5,2,-1
 448 -64 l 5,3,-1
 448 64 l 5,0,-1
768 64 m 1,4,-1
 768 256 l 1,5,-1
 448 256 l 1,6,-1
 448 384 l 1,7,-1
 768 384 l 1,8,-1
 896 384 l 1,9,-1
 896 256 l 1,10,-1
 896 64 l 1,11,-1
 896 0 l 2,12,13
 896 -159 896 -159 783.5 -271.5 c 128,-1,14
 671 -384 671 -384 512 -384 c 128,-1,15
 353 -384 353 -384 240.5 -271.5 c 128,-1,16
 128 -159 128 -159 128 0 c 2,17,18
 128 0 128 0 128 64 c 1,19,-1
 256 64 l 1,20,-1
 256 0 l 2,21,22
 256 -106 256 -106 331 -181 c 128,-1,23
 406 -256 406 -256 512 -256 c 128,-1,24
 618 -256 618 -256 693 -181 c 128,-1,25
 768 -106 768 -106 768 0 c 2,26,27
 768 0 768 0 768 64 c 1,4,-1
EndSplineSet
Validated: 1025
EndChar

StartChar: W
Encoding: 87 87 114
Width: 1024
VWidth: 1689
Flags: W
LayerCount: 2
Fore
SplineSet
576 -256 m 1,0,-1
 896 -256 l 1,1,-1
 896 -384 l 1,2,-1
 576 -384 l 1,3,-1
 512 -384 l 2,4,5
 353 -384 353 -384 240.5 -271.5 c 128,-1,6
 128 -159 128 -159 128 0 c 128,-1,7
 128 159 128 159 240.5 271.5 c 128,-1,8
 353 384 353 384 512 384 c 2,9,10
 512 384 512 384 576 384 c 1,11,-1
 576 256 l 1,12,-1
 512 256 l 2,13,14
 406 256 406 256 331 181 c 128,-1,15
 256 106 256 106 256 0 c 128,-1,16
 256 -106 256 -106 331 -181 c 128,-1,17
 406 -256 406 -256 512 -256 c 2,18,19
 512 -256 512 -256 576 -256 c 1,0,-1
EndSplineSet
Validated: 1
EndChar

StartChar: X
Encoding: 88 88 115
Width: 1024
VWidth: 1689
Flags: W
LayerCount: 2
Fore
SplineSet
256 64 m 5,0,-1
 256 0 l 6,1,2
 256 -106 256 -106 331 -181 c 132,-1,3
 406 -256 406 -256 512 -256 c 132,-1,4
 618 -256 618 -256 693 -181 c 132,-1,5
 768 -106 768 -106 768 0 c 6,6,-1
 768 64 l 5,7,-1
 896 64 l 5,8,-1
 896 0 l 6,9,10
 896 -159 896 -159 783.5 -271.5 c 132,-1,11
 671 -384 671 -384 512 -384 c 132,-1,12
 353 -384 353 -384 240.5 -271.5 c 132,-1,13
 128 -159 128 -159 128 0 c 6,14,-1
 128 64 l 5,15,-1
 128 256 l 5,16,-1
 128 384 l 5,17,-1
 256 384 l 5,18,-1
 576 384 l 5,19,-1
 576 256 l 5,20,-1
 256 256 l 5,21,-1
 256 64 l 5,0,-1
EndSplineSet
Validated: 1025
EndChar

StartChar: Y
Encoding: 89 89 116
Width: 1024
VWidth: 1689
Flags: W
LayerCount: 2
Fore
SplineSet
512 -256 m 2,0,-1
 768 -256 l 1,1,-1
 768 -64 l 1,2,-1
 768 0 l 2,3,4
 768 106 768 106 693 181 c 128,-1,5
 618 256 618 256 512 256 c 1,6,-1
 512 384 l 1,7,8
 671 384 671 384 783.5 271.5 c 128,-1,9
 896 159 896 159 896 0 c 2,10,-1
 896 -64 l 1,11,-1
 896 -256 l 1,12,-1
 896 -384 l 1,13,-1
 512 -384 l 2,14,15
 320 -384 320 -384 128 -384 c 1,16,-1
 128 -256 l 1,17,-1
 512 -256 l 2,0,-1
EndSplineSet
Validated: 1
EndChar

StartChar: Z
Encoding: 90 90 117
Width: 1024
VWidth: 1689
Flags: W
LayerCount: 2
Fore
SplineSet
256 -64 m 1,0,-1
 256 -256 l 1,1,-1
 576 -256 l 1,2,-1
 576 -384 l 1,3,-1
 256 -384 l 1,4,-1
 128 -384 l 1,5,-1
 128 -256 l 1,6,-1
 128 -64 l 1,7,-1
 128 0 l 2,8,9
 128 159 128 159 240.5 271.5 c 128,-1,10
 353 384 353 384 512 384 c 128,-1,11
 671 384 671 384 783.5 271.5 c 128,-1,12
 896 159 896 159 896 0 c 2,13,14
 896 0 896 0 896 -64 c 1,15,-1
 768 -64 l 1,16,-1
 768 0 l 2,17,18
 768 106 768 106 693 181 c 128,-1,19
 618 256 618 256 512 256 c 128,-1,20
 406 256 406 256 331 181 c 128,-1,21
 256 106 256 106 256 0 c 2,22,23
 256 0 256 0 256 -64 c 1,0,-1
EndSplineSet
Validated: 1025
EndChar

StartChar: a
Encoding: 97 97 118
Width: 1024
VWidth: 1689
Flags: W
LayerCount: 2
Fore
SplineSet
256 0 m 2,0,-1
 256 -256 l 1,1,-1
 448 -256 l 1,2,-1
 512 -256 l 2,3,4
 618 -256 618 -256 693 -181 c 128,-1,5
 768 -106 768 -106 768 0 c 1,6,-1
 896 0 l 1,7,8
 896 -159 896 -159 783.5 -271.5 c 128,-1,9
 671 -384 671 -384 512 -384 c 2,10,-1
 448 -384 l 1,11,-1
 256 -384 l 1,12,-1
 128 -384 l 1,13,-1
 128 0 l 2,14,15
 128 192 128 192 128 384 c 1,16,-1
 256 384 l 1,17,-1
 256 0 l 2,0,-1
EndSplineSet
Validated: 1
EndChar

StartChar: b
Encoding: 98 98 119
Width: 1024
VWidth: 1689
Flags: W
LayerCount: 2
Fore
SplineSet
448 64 m 5,0,-1
 576 64 l 5,1,-1
 576 -64 l 5,2,-1
 448 -64 l 5,3,-1
 448 64 l 5,0,-1
256 0 m 2,4,-1
 256 -256 l 1,5,-1
 448 -256 l 1,6,-1
 512 -256 l 2,7,8
 618 -256 618 -256 693 -181 c 128,-1,9
 768 -106 768 -106 768 0 c 1,10,-1
 896 0 l 1,11,12
 896 -159 896 -159 783.5 -271.5 c 128,-1,13
 671 -384 671 -384 512 -384 c 2,14,-1
 448 -384 l 1,15,-1
 256 -384 l 1,16,-1
 128 -384 l 1,17,-1
 128 0 l 2,18,19
 128 192 128 192 128 384 c 1,20,-1
 256 384 l 1,21,-1
 256 0 l 2,4,-1
EndSplineSet
Validated: 1025
EndChar

StartChar: d
Encoding: 100 100 120
Width: 1024
VWidth: 1689
Flags: W
LayerCount: 2
Fore
SplineSet
448 64 m 5,0,-1
 576 64 l 5,1,-1
 576 -64 l 5,2,-1
 448 -64 l 5,3,-1
 448 64 l 5,0,-1
512 -256 m 2,4,-1
 768 -256 l 1,5,-1
 768 -64 l 1,6,-1
 768 0 l 2,7,8
 768 106 768 106 693 181 c 128,-1,9
 618 256 618 256 512 256 c 1,10,-1
 512 384 l 1,11,12
 671 384 671 384 783.5 271.5 c 128,-1,13
 896 159 896 159 896 0 c 2,14,-1
 896 -64 l 1,15,-1
 896 -256 l 1,16,-1
 896 -384 l 1,17,-1
 512 -384 l 2,18,19
 320 -384 320 -384 128 -384 c 1,20,-1
 128 -256 l 1,21,-1
 512 -256 l 2,4,-1
EndSplineSet
Validated: 1025
EndChar

StartChar: e
Encoding: 101 101 121
Width: 1024
VWidth: 1689
Flags: W
LayerCount: 2
Fore
SplineSet
768 0 m 2,0,-1
 768 256 l 1,1,-1
 576 256 l 1,2,-1
 512 256 l 2,3,4
 406 256 406 256 331 181 c 128,-1,5
 256 106 256 106 256 0 c 1,6,-1
 128 0 l 1,7,8
 128 159 128 159 240.5 271.5 c 128,-1,9
 353 384 353 384 512 384 c 2,10,-1
 576 384 l 1,11,-1
 768 384 l 1,12,-1
 896 384 l 1,13,-1
 896 0 l 2,14,15
 896 -192 896 -192 896 -384 c 1,16,-1
 768 -384 l 1,17,-1
 768 0 l 2,0,-1
EndSplineSet
Validated: 1
EndChar

StartChar: f
Encoding: 102 102 122
Width: 1024
VWidth: 1689
Flags: W
LayerCount: 2
Fore
SplineSet
448 64 m 5,0,-1
 576 64 l 5,1,-1
 576 -64 l 5,2,-1
 448 -64 l 5,3,-1
 448 64 l 5,0,-1
768 0 m 2,4,-1
 768 256 l 1,5,-1
 576 256 l 1,6,-1
 512 256 l 2,7,8
 406 256 406 256 331 181 c 128,-1,9
 256 106 256 106 256 0 c 1,10,-1
 128 0 l 1,11,12
 128 159 128 159 240.5 271.5 c 128,-1,13
 353 384 353 384 512 384 c 2,14,-1
 576 384 l 1,15,-1
 768 384 l 1,16,-1
 896 384 l 1,17,-1
 896 0 l 2,18,19
 896 -192 896 -192 896 -384 c 1,20,-1
 768 -384 l 1,21,-1
 768 0 l 2,4,-1
EndSplineSet
Validated: 1025
EndChar

StartChar: g
Encoding: 103 103 123
Width: 1024
VWidth: 1689
Flags: W
LayerCount: 2
Fore
SplineSet
512 256 m 2,0,-1
 256 256 l 1,1,-1
 256 64 l 1,2,-1
 256 0 l 2,3,4
 256 -106 256 -106 331 -181 c 128,-1,5
 406 -256 406 -256 512 -256 c 1,6,-1
 512 -384 l 1,7,8
 353 -384 353 -384 240.5 -271.5 c 128,-1,9
 128 -159 128 -159 128 0 c 2,10,-1
 128 64 l 1,11,-1
 128 256 l 1,12,-1
 128 384 l 1,13,-1
 512 384 l 2,14,15
 704 384 704 384 896 384 c 1,16,-1
 896 256 l 1,17,-1
 512 256 l 2,0,-1
EndSplineSet
Validated: 1
EndChar

StartChar: h
Encoding: 104 104 124
Width: 1024
VWidth: 1689
Flags: W
LayerCount: 2
Fore
SplineSet
448 64 m 5,0,-1
 576 64 l 5,1,-1
 576 -64 l 5,2,-1
 448 -64 l 5,3,-1
 448 64 l 5,0,-1
512 256 m 2,4,-1
 256 256 l 1,5,-1
 256 64 l 1,6,-1
 256 0 l 2,7,8
 256 -106 256 -106 331 -181 c 128,-1,9
 406 -256 406 -256 512 -256 c 1,10,-1
 512 -384 l 1,11,12
 353 -384 353 -384 240.5 -271.5 c 128,-1,13
 128 -159 128 -159 128 0 c 2,14,-1
 128 64 l 1,15,-1
 128 256 l 1,16,-1
 128 384 l 1,17,-1
 512 384 l 2,18,19
 704 384 704 384 896 384 c 1,20,-1
 896 256 l 1,21,-1
 512 256 l 2,4,-1
EndSplineSet
Validated: 1025
EndChar

StartChar: i
Encoding: 105 105 125
Width: 1024
VWidth: 1689
Flags: W
LayerCount: 2
Fore
SplineSet
512 256 m 2,0,-1
 128 256 l 1,1,-1
 128 384 l 1,2,3
 320 384 320 384 512 384 c 2,4,5
 512 384 512 384 896 384 c 1,6,-1
 896 256 l 1,7,-1
 896 64 l 1,8,-1
 896 0 l 2,9,10
 896 -159 896 -159 783.5 -271.5 c 128,-1,11
 671 -384 671 -384 512 -384 c 1,12,13
 512 -384 512 -384 512 -256 c 1,14,15
 618 -256 618 -256 693 -181 c 128,-1,16
 768 -106 768 -106 768 0 c 2,17,18
 768 0 768 0 768 64 c 1,19,-1
 768 256 l 1,20,-1
 512 256 l 2,0,-1
EndSplineSet
Validated: 1
EndChar

StartChar: j
Encoding: 106 106 126
Width: 1024
VWidth: 1689
Flags: W
LayerCount: 2
Fore
SplineSet
448 64 m 5,0,-1
 576 64 l 5,1,-1
 576 -64 l 5,2,-1
 448 -64 l 5,3,-1
 448 64 l 5,0,-1
512 256 m 2,4,-1
 128 256 l 1,5,-1
 128 384 l 1,6,7
 320 384 320 384 512 384 c 2,8,9
 512 384 512 384 896 384 c 1,10,-1
 896 256 l 1,11,-1
 896 64 l 1,12,-1
 896 0 l 2,13,14
 896 -159 896 -159 783.5 -271.5 c 128,-1,15
 671 -384 671 -384 512 -384 c 1,16,17
 512 -384 512 -384 512 -256 c 1,18,19
 618 -256 618 -256 693 -181 c 128,-1,20
 768 -106 768 -106 768 0 c 2,21,22
 768 0 768 0 768 64 c 1,23,-1
 768 256 l 1,24,-1
 512 256 l 2,4,-1
EndSplineSet
Validated: 1025
EndChar

StartChar: k
Encoding: 107 107 127
Width: 1024
VWidth: 1689
Flags: W
LayerCount: 2
Fore
SplineSet
256 0 m 2,0,-1
 256 -384 l 1,1,-1
 128 -384 l 1,2,3
 128 -192 128 -192 128 0 c 2,4,5
 128 0 128 0 128 384 c 1,6,-1
 256 384 l 1,7,-1
 448 384 l 1,8,-1
 512 384 l 2,9,10
 671 384 671 384 783.5 271.5 c 128,-1,11
 896 159 896 159 896 0 c 1,12,13
 896 0 896 0 768 0 c 1,14,15
 768 106 768 106 693 181 c 128,-1,16
 618 256 618 256 512 256 c 2,17,18
 512 256 512 256 448 256 c 1,19,-1
 256 256 l 1,20,-1
 256 0 l 2,0,-1
EndSplineSet
Validated: 1
EndChar

StartChar: l
Encoding: 108 108 128
Width: 1024
VWidth: 1689
Flags: W
LayerCount: 2
Fore
SplineSet
448 64 m 5,0,-1
 576 64 l 5,1,-1
 576 -64 l 5,2,-1
 448 -64 l 5,3,-1
 448 64 l 5,0,-1
256 0 m 2,4,-1
 256 -384 l 1,5,-1
 128 -384 l 1,6,7
 128 -192 128 -192 128 0 c 2,8,9
 128 0 128 0 128 384 c 1,10,-1
 256 384 l 1,11,-1
 448 384 l 1,12,-1
 512 384 l 2,13,14
 671 384 671 384 783.5 271.5 c 128,-1,15
 896 159 896 159 896 0 c 1,16,17
 896 0 896 0 768 0 c 1,18,19
 768 106 768 106 693 181 c 128,-1,20
 618 256 618 256 512 256 c 2,21,22
 512 256 512 256 448 256 c 1,23,-1
 256 256 l 1,24,-1
 256 0 l 2,4,-1
EndSplineSet
Validated: 1025
EndChar

StartChar: m
Encoding: 109 109 129
Width: 1024
VWidth: 1689
Flags: W
LayerCount: 2
Fore
SplineSet
512 -256 m 2,0,-1
 896 -256 l 1,1,-1
 896 -384 l 1,2,3
 704 -384 704 -384 512 -384 c 2,4,5
 512 -384 512 -384 128 -384 c 1,6,-1
 128 -256 l 1,7,-1
 128 -64 l 1,8,-1
 128 0 l 2,9,10
 128 159 128 159 240.5 271.5 c 128,-1,11
 353 384 353 384 512 384 c 1,12,13
 512 384 512 384 512 256 c 1,14,15
 406 256 406 256 331 181 c 128,-1,16
 256 106 256 106 256 0 c 2,17,18
 256 0 256 0 256 -64 c 1,19,-1
 256 -256 l 1,20,-1
 512 -256 l 2,0,-1
EndSplineSet
Validated: 1
EndChar

StartChar: n
Encoding: 110 110 130
Width: 1024
VWidth: 1689
Flags: W
LayerCount: 2
Fore
SplineSet
448 64 m 5,0,-1
 576 64 l 5,1,-1
 576 -64 l 5,2,-1
 448 -64 l 5,3,-1
 448 64 l 5,0,-1
512 -256 m 2,4,-1
 896 -256 l 1,5,-1
 896 -384 l 1,6,7
 704 -384 704 -384 512 -384 c 2,8,9
 512 -384 512 -384 128 -384 c 1,10,-1
 128 -256 l 1,11,-1
 128 -64 l 1,12,-1
 128 0 l 2,13,14
 128 159 128 159 240.5 271.5 c 128,-1,15
 353 384 353 384 512 384 c 1,16,17
 512 384 512 384 512 256 c 1,18,19
 406 256 406 256 331 181 c 128,-1,20
 256 106 256 106 256 0 c 2,21,22
 256 0 256 0 256 -64 c 1,23,-1
 256 -256 l 1,24,-1
 512 -256 l 2,4,-1
EndSplineSet
Validated: 1025
EndChar

StartChar: o
Encoding: 111 111 131
Width: 1024
VWidth: 1689
Flags: W
LayerCount: 2
Fore
SplineSet
768 0 m 2,0,-1
 768 384 l 1,1,-1
 896 384 l 1,2,3
 896 192 896 192 896 0 c 2,4,5
 896 0 896 0 896 -384 c 1,6,-1
 768 -384 l 1,7,-1
 576 -384 l 1,8,-1
 512 -384 l 2,9,10
 353 -384 353 -384 240.5 -271.5 c 128,-1,11
 128 -159 128 -159 128 0 c 1,12,13
 128 0 128 0 256 0 c 1,14,15
 256 -106 256 -106 331 -181 c 128,-1,16
 406 -256 406 -256 512 -256 c 2,17,18
 512 -256 512 -256 576 -256 c 1,19,-1
 768 -256 l 1,20,-1
 768 0 l 2,0,-1
EndSplineSet
Validated: 1
EndChar

StartChar: p
Encoding: 112 112 132
Width: 1024
VWidth: 1689
Flags: W
LayerCount: 2
Fore
SplineSet
448 64 m 5,0,-1
 576 64 l 5,1,-1
 576 -64 l 5,2,-1
 448 -64 l 5,3,-1
 448 64 l 5,0,-1
768 0 m 2,4,-1
 768 384 l 1,5,-1
 896 384 l 1,6,7
 896 192 896 192 896 0 c 2,8,9
 896 0 896 0 896 -384 c 1,10,-1
 768 -384 l 1,11,-1
 576 -384 l 1,12,-1
 512 -384 l 2,13,14
 353 -384 353 -384 240.5 -271.5 c 128,-1,15
 128 -159 128 -159 128 0 c 1,16,17
 128 0 128 0 256 0 c 1,18,19
 256 -106 256 -106 331 -181 c 128,-1,20
 406 -256 406 -256 512 -256 c 2,21,22
 512 -256 512 -256 576 -256 c 1,23,-1
 768 -256 l 1,24,-1
 768 0 l 2,4,-1
EndSplineSet
Validated: 1025
EndChar

StartChar: q
Encoding: 113 113 133
Width: 1024
VWidth: 1689
Flags: W
LayerCount: 2
Fore
SplineSet
256 64 m 5,0,-1
 256 0 l 6,1,2
 256 -106 256 -106 331 -181 c 132,-1,3
 406 -256 406 -256 512 -256 c 132,-1,4
 618 -256 618 -256 693 -181 c 132,-1,5
 768 -106 768 -106 768 0 c 6,6,-1
 768 64 l 5,7,-1
 896 64 l 5,8,-1
 896 0 l 6,9,10
 896 -159 896 -159 783.5 -271.5 c 132,-1,11
 671 -384 671 -384 512 -384 c 132,-1,12
 353 -384 353 -384 240.5 -271.5 c 132,-1,13
 128 -159 128 -159 128 0 c 6,14,-1
 128 64 l 5,15,-1
 128 384 l 5,16,-1
 256 384 l 5,17,-1
 256 64 l 5,0,-1
EndSplineSet
Validated: 1
EndChar

StartChar: r
Encoding: 114 114 134
Width: 1024
VWidth: 1689
Flags: W
LayerCount: 2
Fore
SplineSet
448 64 m 5,0,-1
 576 64 l 5,1,-1
 576 -64 l 5,2,-1
 448 -64 l 5,3,-1
 448 64 l 5,0,-1
256 64 m 1,4,-1
 256 0 l 2,5,6
 256 -106 256 -106 331 -181 c 128,-1,7
 406 -256 406 -256 512 -256 c 128,-1,8
 618 -256 618 -256 693 -181 c 128,-1,9
 768 -106 768 -106 768 0 c 2,10,-1
 768 64 l 1,11,-1
 896 64 l 1,12,-1
 896 0 l 2,13,14
 896 -159 896 -159 783.5 -271.5 c 128,-1,15
 671 -384 671 -384 512 -384 c 128,-1,16
 353 -384 353 -384 240.5 -271.5 c 128,-1,17
 128 -159 128 -159 128 0 c 2,18,-1
 128 64 l 1,19,-1
 128 384 l 1,20,-1
 256 384 l 1,21,-1
 256 64 l 1,4,-1
EndSplineSet
Validated: 1025
EndChar

StartChar: s
Encoding: 115 115 135
Width: 1024
VWidth: 1689
Flags: W
LayerCount: 2
Fore
SplineSet
448 -256 m 5,0,-1
 512 -256 l 6,1,2
 618 -256 618 -256 693 -181 c 132,-1,3
 768 -106 768 -106 768 0 c 132,-1,4
 768 106 768 106 693 181 c 132,-1,5
 618 256 618 256 512 256 c 6,6,-1
 448 256 l 5,7,-1
 448 384 l 5,8,-1
 512 384 l 6,9,10
 671 384 671 384 783.5 271.5 c 132,-1,11
 896 159 896 159 896 0 c 132,-1,12
 896 -159 896 -159 783.5 -271.5 c 132,-1,13
 671 -384 671 -384 512 -384 c 6,14,-1
 448 -384 l 5,15,-1
 128 -384 l 5,16,-1
 128 -256 l 5,17,-1
 448 -256 l 5,0,-1
EndSplineSet
Validated: 1
EndChar

StartChar: t
Encoding: 116 116 136
Width: 1024
VWidth: 1689
Flags: W
LayerCount: 2
Fore
SplineSet
448 64 m 5,0,-1
 576 64 l 5,1,-1
 576 -64 l 5,2,-1
 448 -64 l 5,3,-1
 448 64 l 5,0,-1
448 -256 m 1,4,-1
 512 -256 l 2,5,6
 618 -256 618 -256 693 -181 c 128,-1,7
 768 -106 768 -106 768 0 c 128,-1,8
 768 106 768 106 693 181 c 128,-1,9
 618 256 618 256 512 256 c 2,10,-1
 448 256 l 1,11,-1
 448 384 l 1,12,-1
 512 384 l 2,13,14
 671 384 671 384 783.5 271.5 c 128,-1,15
 896 159 896 159 896 0 c 128,-1,16
 896 -159 896 -159 783.5 -271.5 c 128,-1,17
 671 -384 671 -384 512 -384 c 2,18,-1
 448 -384 l 1,19,-1
 128 -384 l 1,20,-1
 128 -256 l 1,21,-1
 448 -256 l 1,4,-1
EndSplineSet
Validated: 1025
EndChar

StartChar: u
Encoding: 117 117 137
Width: 1024
VWidth: 1689
Flags: W
LayerCount: 2
Fore
SplineSet
768 -64 m 5,0,-1
 768 0 l 6,1,2
 768 106 768 106 693 181 c 132,-1,3
 618 256 618 256 512 256 c 132,-1,4
 406 256 406 256 331 181 c 132,-1,5
 256 106 256 106 256 0 c 6,6,-1
 256 -64 l 5,7,-1
 128 -64 l 5,8,-1
 128 0 l 6,9,10
 128 159 128 159 240.5 271.5 c 132,-1,11
 353 384 353 384 512 384 c 132,-1,12
 671 384 671 384 783.5 271.5 c 132,-1,13
 896 159 896 159 896 0 c 6,14,-1
 896 -64 l 5,15,-1
 896 -384 l 5,16,-1
 768 -384 l 5,17,-1
 768 -64 l 5,0,-1
EndSplineSet
Validated: 1
EndChar

StartChar: v
Encoding: 118 118 138
Width: 1024
VWidth: 1689
Flags: W
LayerCount: 2
Fore
SplineSet
448 64 m 5,0,-1
 576 64 l 5,1,-1
 576 -64 l 5,2,-1
 448 -64 l 5,3,-1
 448 64 l 5,0,-1
768 -64 m 1,4,-1
 768 0 l 2,5,6
 768 106 768 106 693 181 c 128,-1,7
 618 256 618 256 512 256 c 128,-1,8
 406 256 406 256 331 181 c 128,-1,9
 256 106 256 106 256 0 c 2,10,-1
 256 -64 l 1,11,-1
 128 -64 l 1,12,-1
 128 0 l 2,13,14
 128 159 128 159 240.5 271.5 c 128,-1,15
 353 384 353 384 512 384 c 128,-1,16
 671 384 671 384 783.5 271.5 c 128,-1,17
 896 159 896 159 896 0 c 2,18,-1
 896 -64 l 1,19,-1
 896 -384 l 1,20,-1
 768 -384 l 1,21,-1
 768 -64 l 1,4,-1
EndSplineSet
Validated: 1025
EndChar

StartChar: w
Encoding: 119 119 139
Width: 1024
VWidth: 1689
Flags: W
LayerCount: 2
Fore
SplineSet
576 256 m 5,0,-1
 512 256 l 6,1,2
 406 256 406 256 331 181 c 132,-1,3
 256 106 256 106 256 0 c 132,-1,4
 256 -106 256 -106 331 -181 c 132,-1,5
 406 -256 406 -256 512 -256 c 6,6,-1
 576 -256 l 5,7,-1
 576 -384 l 5,8,-1
 512 -384 l 6,9,10
 353 -384 353 -384 240.5 -271.5 c 132,-1,11
 128 -159 128 -159 128 0 c 132,-1,12
 128 159 128 159 240.5 271.5 c 132,-1,13
 353 384 353 384 512 384 c 6,14,-1
 576 384 l 5,15,-1
 896 384 l 5,16,-1
 896 256 l 5,17,-1
 576 256 l 5,0,-1
EndSplineSet
Validated: 1
EndChar

StartChar: x
Encoding: 120 120 140
Width: 1024
VWidth: 1689
Flags: W
LayerCount: 2
Fore
SplineSet
448 64 m 5,0,-1
 576 64 l 5,1,-1
 576 -64 l 5,2,-1
 448 -64 l 5,3,-1
 448 64 l 5,0,-1
576 256 m 1,4,-1
 512 256 l 2,5,6
 406 256 406 256 331 181 c 128,-1,7
 256 106 256 106 256 0 c 128,-1,8
 256 -106 256 -106 331 -181 c 128,-1,9
 406 -256 406 -256 512 -256 c 2,10,-1
 576 -256 l 1,11,-1
 576 -384 l 1,12,-1
 512 -384 l 2,13,14
 353 -384 353 -384 240.5 -271.5 c 128,-1,15
 128 -159 128 -159 128 0 c 128,-1,16
 128 159 128 159 240.5 271.5 c 128,-1,17
 353 384 353 384 512 384 c 2,18,-1
 576 384 l 1,19,-1
 896 384 l 1,20,-1
 896 256 l 1,21,-1
 576 256 l 1,4,-1
EndSplineSet
Validated: 1025
EndChar

StartChar: y
Encoding: 121 121 141
Width: 1024
VWidth: 1689
Flags: W
LayerCount: 2
Fore
SplineSet
448 256 m 1,0,-1
 128 256 l 1,1,-1
 128 384 l 1,2,-1
 448 384 l 1,3,-1
 512 384 l 2,4,5
 671 384 671 384 783.5 271.5 c 128,-1,6
 896 159 896 159 896 0 c 128,-1,7
 896 -159 896 -159 783.5 -271.5 c 128,-1,8
 671 -384 671 -384 512 -384 c 2,9,10
 512 -384 512 -384 448 -384 c 1,11,-1
 448 -256 l 1,12,-1
 512 -256 l 2,13,14
 618 -256 618 -256 693 -181 c 128,-1,15
 768 -106 768 -106 768 0 c 128,-1,16
 768 106 768 106 693 181 c 128,-1,17
 618 256 618 256 512 256 c 2,18,19
 512 256 512 256 448 256 c 1,0,-1
EndSplineSet
Validated: 1
EndChar

StartChar: z
Encoding: 122 122 142
Width: 1024
VWidth: 1689
Flags: W
LayerCount: 2
Fore
SplineSet
448 64 m 5,0,-1
 576 64 l 5,1,-1
 576 -64 l 5,2,-1
 448 -64 l 5,3,-1
 448 64 l 5,0,-1
448 256 m 1,4,-1
 128 256 l 1,5,-1
 128 384 l 1,6,-1
 448 384 l 1,7,-1
 512 384 l 2,8,9
 671 384 671 384 783.5 271.5 c 128,-1,10
 896 159 896 159 896 0 c 128,-1,11
 896 -159 896 -159 783.5 -271.5 c 128,-1,12
 671 -384 671 -384 512 -384 c 2,13,14
 512 -384 512 -384 448 -384 c 1,15,-1
 448 -256 l 1,16,-1
 512 -256 l 2,17,18
 618 -256 618 -256 693 -181 c 128,-1,19
 768 -106 768 -106 768 0 c 128,-1,20
 768 106 768 106 693 181 c 128,-1,21
 618 256 618 256 512 256 c 2,22,23
 512 256 512 256 448 256 c 1,4,-1
EndSplineSet
Validated: 1025
EndChar

StartChar: period
Encoding: 46 46 143
Width: 1024
VWidth: 1689
Flags: W
LayerCount: 2
Fore
SplineSet
128 256 m 1,0,-1
 256 256 l 1,1,-1
 256 -256 l 1,2,-1
 128 -256 l 1,3,-1
 128 256 l 1,0,-1
EndSplineSet
Validated: 1
EndChar

StartChar: comma
Encoding: 44 44 144
Width: 1024
VWidth: 1689
Flags: W
LayerCount: 2
Fore
SplineSet
128 64 m 5,0,-1
 256 64 l 5,1,-1
 256 -64 l 5,2,-1
 128 -64 l 5,3,-1
 128 64 l 5,0,-1
EndSplineSet
Validated: 1
EndChar

StartChar: uni01C0
Encoding: 448 448 145
Width: 1024
VWidth: 1689
Flags: W
LayerCount: 2
Fore
SplineSet
576 64 m 5,0,-1
 896 64 l 5,1,-1
 896 -64 l 5,2,-1
 576 -64 l 5,3,-1
 576 -385 l 5,4,-1
 448 -384 l 5,5,-1
 448 -64 l 5,6,-1
 127 -64 l 5,7,-1
 128 64 l 5,8,-1
 448 64 l 5,9,-1
 448 384 l 5,10,-1
 576 384 l 5,11,-1
 576 64 l 5,0,-1
EndSplineSet
Validated: 1
EndChar

StartChar: uni01C1
Encoding: 449 449 146
Width: 1024
VWidth: 1689
Flags: W
LayerCount: 2
Fore
SplineSet
256 0 m 132,-1,1
 256 -106 256 -106 331 -181 c 132,-1,2
 406 -256 406 -256 512 -256 c 132,-1,3
 618 -256 618 -256 693 -181 c 132,-1,4
 768 -106 768 -106 768 0 c 132,-1,5
 768 106 768 106 693 181 c 132,-1,6
 618 256 618 256 512 256 c 132,-1,7
 406 256 406 256 331 181 c 132,-1,0
 256 106 256 106 256 0 c 132,-1,1
128 0 m 132,-1,9
 128 159 128 159 240.5 271.5 c 132,-1,10
 353 384 353 384 512 384 c 132,-1,11
 671 384 671 384 783.5 271.5 c 132,-1,12
 896 159 896 159 896 0 c 132,-1,13
 896 -159 896 -159 783.5 -271.5 c 132,-1,14
 671 -384 671 -384 512 -384 c 132,-1,15
 353 -384 353 -384 240.5 -271.5 c 132,-1,8
 128 -159 128 -159 128 0 c 132,-1,9
EndSplineSet
Validated: 1
EndChar

StartChar: uni01C2
Encoding: 450 450 147
Width: 1024
VWidth: 1689
Flags: W
LayerCount: 2
Fore
SplineSet
128 64 m 1,0,-1
 256 64 l 1,1,-1
 256 0 l 2,2,3
 256 -106 256 -106 331 -181 c 128,-1,4
 406 -256 406 -256 512 -256 c 128,-1,5
 618 -256 618 -256 693 -181 c 128,-1,6
 768 -106 768 -106 768 0 c 2,7,-1
 768 64 l 1,8,-1
 896 64 l 1,9,-1
 896 0 l 2,10,11
 896 -159 896 -159 783.5 -271.5 c 128,-1,12
 671 -384 671 -384 512 -384 c 128,-1,13
 353 -384 353 -384 240.5 -271.5 c 128,-1,14
 128 -159 128 -159 128 0 c 2,15,-1
 128 64 l 1,0,-1
EndSplineSet
Validated: 1
EndChar

StartChar: exclam
Encoding: 33 33 148
Width: 1024
VWidth: 1689
Flags: W
LayerCount: 2
Fore
SplineSet
576 -64 m 5,0,-1
 576 -256 l 5,1,-1
 576 -384 l 5,2,-1
 512 -384 l 6,3,4
 352 -384 352 -384 240 -272 c 5,5,-1
 330 -182 l 5,6,7
 382 -232 382 -232 448 -248 c 5,8,-1
 448 -64 l 5,9,-1
 256 -64 l 5,10,-1
 128 -64 l 5,11,-1
 128 0 l 6,12,13
 128 160 128 160 240 272 c 5,14,-1
 330 180 l 5,15,16
 280 130 280 130 264 64 c 5,17,-1
 448 64 l 5,18,-1
 448 256 l 5,19,-1
 448 384 l 5,20,-1
 512 384 l 6,21,22
 672 384 672 384 784 272 c 5,23,-1
 692 180 l 5,24,25
 642 232 642 232 576 248 c 5,26,-1
 576 64 l 5,27,-1
 896 64 l 5,28,-1
 896 -64 l 5,29,-1
 576 -64 l 5,0,-1
EndSplineSet
Validated: 1025
EndChar

StartChar: c
Encoding: 99 99 149
Width: 1024
VWidth: 1689
Flags: W
LayerCount: 2
Fore
SplineSet
512 -256 m 2,0,-1
 768 -256 l 1,1,-1
 768 -64 l 1,2,-1
 768 0 l 2,3,4
 768 106 768 106 693 181 c 128,-1,5
 618 256 618 256 512 256 c 1,6,-1
 512 384 l 1,7,8
 671 384 671 384 783.5 271.5 c 128,-1,9
 896 159 896 159 896 0 c 2,10,-1
 896 -64 l 1,11,-1
 896 -256 l 1,12,-1
 896 -384 l 1,13,-1
 512 -384 l 2,14,15
 320 -384 320 -384 128 -384 c 1,16,-1
 128 -256 l 1,17,-1
 512 -256 l 2,0,-1
EndSplineSet
Validated: 1
EndChar

StartChar: C
Encoding: 67 67 150
Width: 1024
VWidth: 1689
Flags: W
LayerCount: 2
Fore
SplineSet
576 -256 m 1,0,-1
 896 -256 l 1,1,-1
 896 -384 l 1,2,-1
 576 -384 l 1,3,-1
 512 -384 l 2,4,5
 353 -384 353 -384 240.5 -271.5 c 128,-1,6
 128 -159 128 -159 128 0 c 128,-1,7
 128 159 128 159 240.5 271.5 c 128,-1,8
 353 384 353 384 512 384 c 2,9,10
 512 384 512 384 576 384 c 1,11,-1
 576 256 l 1,12,-1
 512 256 l 2,13,14
 406 256 406 256 331 181 c 128,-1,15
 256 106 256 106 256 0 c 128,-1,16
 256 -106 256 -106 331 -181 c 128,-1,17
 406 -256 406 -256 512 -256 c 2,18,19
 512 -256 512 -256 576 -256 c 1,0,-1
EndSplineSet
Validated: 1
EndChar

StartChar: G
Encoding: 71 71 151
Width: 1024
VWidth: 1689
Flags: W
LayerCount: 2
Fore
SplineSet
256 64 m 5,0,-1
 256 0 l 6,1,2
 256 -106 256 -106 331 -181 c 132,-1,3
 406 -256 406 -256 512 -256 c 132,-1,4
 618 -256 618 -256 693 -181 c 132,-1,5
 768 -106 768 -106 768 0 c 6,6,-1
 768 64 l 5,7,-1
 896 64 l 5,8,-1
 896 0 l 6,9,10
 896 -159 896 -159 783.5 -271.5 c 132,-1,11
 671 -384 671 -384 512 -384 c 132,-1,12
 353 -384 353 -384 240.5 -271.5 c 132,-1,13
 128 -159 128 -159 128 0 c 6,14,-1
 128 64 l 5,15,-1
 128 256 l 5,16,-1
 128 384 l 5,17,-1
 256 384 l 5,18,-1
 576 384 l 5,19,-1
 576 256 l 5,20,-1
 256 256 l 5,21,-1
 256 64 l 5,0,-1
EndSplineSet
Validated: 1025
EndChar

StartChar: Q
Encoding: 81 81 152
Width: 1024
VWidth: 1689
Flags: W
LayerCount: 2
Fore
SplineSet
256 -64 m 1,0,-1
 256 -256 l 1,1,-1
 576 -256 l 1,2,-1
 576 -384 l 1,3,-1
 256 -384 l 1,4,-1
 128 -384 l 1,5,-1
 128 -256 l 1,6,-1
 128 -64 l 1,7,-1
 128 0 l 2,8,9
 128 159 128 159 240.5 271.5 c 128,-1,10
 353 384 353 384 512 384 c 128,-1,11
 671 384 671 384 783.5 271.5 c 128,-1,12
 896 159 896 159 896 0 c 2,13,14
 896 0 896 0 896 -64 c 1,15,-1
 768 -64 l 1,16,-1
 768 0 l 2,17,18
 768 106 768 106 693 181 c 128,-1,19
 618 256 618 256 512 256 c 128,-1,20
 406 256 406 256 331 181 c 128,-1,21
 256 106 256 106 256 0 c 2,22,23
 256 0 256 0 256 -64 c 1,0,-1
EndSplineSet
Validated: 1025
EndChar

StartChar: less
Encoding: 60 60 153
Width: 1024
VWidth: 1689
Flags: W
LayerCount: 2
Fore
SplineSet
896 384 m 5,0,-1
 896 256 l 5,1,-1
 768 0 l 5,2,-1
 896 -256 l 5,3,-1
 896 -384 l 5,4,-1
 512 0 l 5,5,-1
 896 384 l 5,0,-1
EndSplineSet
EndChar

StartChar: greater
Encoding: 62 62 154
Width: 1024
VWidth: 1689
Flags: W
LayerCount: 2
Fore
SplineSet
128 384 m 5,0,-1
 512 0 l 5,1,-1
 128 -384 l 5,2,-1
 128 -256 l 5,3,-1
 256 0 l 5,4,-1
 128 256 l 5,5,-1
 128 384 l 5,0,-1
EndSplineSet
EndChar

StartChar: plus
Encoding: 43 43 155
Width: 1024
VWidth: 1689
Flags: W
LayerCount: 2
Fore
SplineSet
576 -64 m 5,0,-1
 576 -256 l 5,1,-1
 576 -384 l 5,2,-1
 512 -384 l 6,3,4
 352 -384 352 -384 240 -272 c 5,5,-1
 331 -181 l 5,6,7
 382 -232 382 -232 448 -248 c 5,8,-1
 448 -64 l 5,9,-1
 128 -64 l 5,10,-1
 128 64 l 5,11,-1
 448 64 l 5,12,-1
 448 256 l 5,13,-1
 448 384 l 5,14,-1
 512 384 l 6,15,16
 672 384 672 384 784 272 c 5,17,-1
 693 181 l 5,18,19
 642 232 642 232 576 248 c 5,20,-1
 576 64 l 5,21,-1
 896 64 l 5,22,-1
 896 -64 l 5,23,-1
 576 -64 l 5,0,-1
EndSplineSet
EndChar

StartChar: hyphen
Encoding: 45 45 156
Width: 1024
VWidth: 1689
Flags: W
LayerCount: 2
Fore
SplineSet
576 64 m 5,0,-1
 768 64 l 5,1,-1
 896 64 l 5,2,-1
 896 0 l 6,3,4
 896 -160 896 -160 784 -272 c 5,5,-1
 693 -181 l 5,6,7
 744 -130 744 -130 760 -64 c 5,8,-1
 576 -64 l 5,9,-1
 576 -384 l 5,10,-1
 448 -384 l 5,11,-1
 448 -64 l 5,12,-1
 256 -64 l 5,13,-1
 128 -64 l 5,14,-1
 128 0 l 6,15,16
 128 160 128 160 240 272 c 5,17,-1
 331 181 l 5,18,19
 280 130 280 130 264 64 c 5,20,-1
 448 64 l 5,21,-1
 448 384 l 5,22,-1
 576 384 l 5,23,-1
 576 64 l 5,0,-1
EndSplineSet
EndChar

StartChar: numbersign
Encoding: 35 35 157
Width: 1024
VWidth: 1689
Flags: W
LayerCount: 2
Fore
SplineSet
896 0 m 6,0,1
 896 -160 896 -160 784 -272 c 5,2,-1
 693 -181 l 5,3,4
 744 -130 744 -130 760 -64 c 5,5,-1
 576 -64 l 5,6,-1
 576 -256 l 5,7,-1
 576 -384 l 5,8,-1
 512 -384 l 6,9,10
 352 -384 352 -384 240 -272 c 5,11,-1
 331 -181 l 5,12,13
 382 -232 382 -232 448 -248 c 5,14,-1
 448 -64 l 5,15,-1
 256 -64 l 5,16,-1
 128 -64 l 5,17,-1
 128 0 l 6,18,19
 128 160 128 160 240 272 c 5,20,-1
 331 181 l 5,21,22
 280 130 280 130 264 64 c 5,23,-1
 448 64 l 5,24,-1
 448 256 l 5,25,-1
 448 384 l 5,26,-1
 512 384 l 6,27,28
 672 384 672 384 784 272 c 5,29,-1
 693 181 l 5,30,31
 642 232 642 232 576 248 c 5,32,-1
 576 64 l 5,33,-1
 768 64 l 5,34,-1
 896 64 l 5,35,-1
 896 0 l 6,0,1
EndSplineSet
EndChar

StartChar: slash
Encoding: 47 47 158
Width: 1024
VWidth: 1689
Flags: W
LayerCount: 2
Fore
SplineSet
576 64 m 1,0,-1
 896 64 l 1,1,-1
 896 -64 l 1,2,-1
 576 -64 l 1,3,-1
 576 -385 l 1,4,-1
 448 -384 l 1,5,-1
 448 -64 l 1,6,-1
 127 -64 l 5,7,-1
 128 64 l 5,8,-1
 448 64 l 1,9,-1
 448 384 l 1,10,-1
 576 384 l 1,11,-1
 576 64 l 1,0,-1
EndSplineSet
EndChar
